<?xml version="1.0" standalone="no"?>
<!DOCTYPE svg PUBLIC "-//W3C//DTD SVG 20010904//EN"
 "http://www.w3.org/TR/2001/REC-SVG-20010904/DTD/svg10.dtd">
<svg version="1.0" xmlns="http://www.w3.org/2000/svg"
 width="500.000000pt" height="500.000000pt" viewBox="0 0 500.000000 500.000000"
 preserveAspectRatio="xMidYMid meet">

<g transform="translate(0.000000,500.000000) scale(0.100000,-0.100000)"
fill="#000000" stroke="none">
<path d="M0 3915 c0 -717 3 -1085 10 -1085 6 0 10 -7 10 -15 0 -8 -4 -15 -10
-15 -6 0 -10 -250 -10 -699 l0 -698 24 4 c15 3 25 -1 29 -11 8 -20 -19 -47
-38 -40 -13 5 -15 -80 -15 -675 l0 -681 629 0 c623 0 629 0 624 20 -6 24 21
38 41 21 7 -6 16 -8 20 -4 4 4 9 -3 13 -15 l5 -22 427 0 428 0 -1 23 c-1 16 5
22 19 22 14 0 20 -6 19 -22 l-1 -23 1389 0 1388 0 0 540 c0 468 -2 540 -15
540 -22 0 -39 38 -24 56 6 8 18 14 25 14 11 0 14 30 14 154 0 140 -2 154 -17
152 -13 -1 -18 6 -18 24 0 18 5 25 18 24 15 -2 17 9 17 93 0 52 -4 92 -9 89
-5 -3 -14 1 -21 9 -10 12 -10 18 0 30 7 8 16 12 21 9 5 -3 9 312 9 745 0 494
-3 751 -10 751 -5 0 -10 7 -10 15 0 8 5 15 10 15 7 0 10 297 10 870 l0 870
-174 0 c-169 0 -174 -1 -169 -20 4 -15 0 -20 -16 -20 -23 0 -29 25 -9 33 7 3
-325 6 -738 6 l-751 1 0 -25 c0 -14 2 -23 5 -21 8 9 33 -15 26 -25 -3 -5 0 -9
6 -9 6 0 9 -4 6 -9 -3 -5 1 -11 9 -15 17 -6 51 -84 47 -105 -2 -7 1 -10 7 -6
6 3 11 -1 11 -9 0 -9 4 -16 8 -16 5 0 8 -10 7 -21 -1 -12 9 -33 22 -47 13 -14
23 -36 23 -49 0 -13 4 -22 9 -19 9 6 26 -22 22 -37 -1 -4 12 -28 29 -53 17
-24 28 -49 25 -54 -3 -6 -1 -10 5 -10 6 0 9 -4 5 -9 -3 -5 0 -13 5 -16 13 -8
34 -56 31 -68 -1 -5 3 -6 8 -3 10 7 23 -18 27 -51 2 -12 12 -33 24 -45 12 -13
19 -31 16 -41 -2 -9 3 -23 12 -30 10 -6 18 -20 20 -29 2 -10 14 -30 28 -45 13
-14 22 -28 20 -30 -6 -7 24 -75 41 -95 8 -9 12 -22 7 -30 -4 -7 -3 -10 1 -5 7
6 28 -28 111 -181 l22 -42 -39 -6 c-21 -4 -36 -10 -33 -15 3 -5 -2 -6 -10 -3
-8 3 -24 0 -36 -6 -18 -10 -24 -9 -31 1 -7 11 -9 11 -9 -2 0 -19 -26 -33 -42
-22 -6 3 -8 2 -5 -4 3 -5 -21 -22 -54 -38 -51 -23 -63 -25 -71 -14 -8 11 -9
10 -4 -3 7 -24 -10 -32 -24 -11 -8 15 -9 13 -4 -9 5 -24 3 -27 -15 -23 -12 2
-19 0 -16 -5 3 -5 -4 -11 -15 -15 -11 -4 -17 -11 -14 -17 5 -7 0 -9 -14 -6
-12 4 -20 2 -17 -2 3 -5 1 -11 -5 -15 -5 -3 -10 1 -10 9 0 21 0 21 -10 56 -5
16 -6 30 -2 30 4 0 7 18 8 39 0 22 -4 38 -8 35 -9 -5 -9 -5 -13 41 -11 106
-16 139 -22 149 -6 9 -10 24 -15 63 -1 7 -4 10 -8 8 -4 -2 -17 17 -30 43 -27
56 -49 84 -61 76 -5 -3 -6 2 -3 10 7 18 -25 68 -39 59 -5 -3 -7 -1 -4 4 10 15
-17 34 -39 28 -15 -4 -14 -3 2 6 l21 11 -24 24 c-13 13 -31 24 -39 24 -8 0
-13 4 -10 8 3 5 -3 16 -13 24 -14 12 -22 13 -31 5 -8 -9 -10 -8 -5 3 6 17 -31
45 -40 30 -3 -5 -12 -7 -21 -3 -8 3 -24 -3 -34 -12 -20 -18 -20 -18 2 -30 13
-7 27 -8 32 -4 5 5 22 -3 38 -16 16 -14 34 -25 39 -25 6 0 7 -9 4 -21 -6 -18
-4 -20 13 -15 15 5 22 2 26 -12 4 -11 15 -27 26 -37 19 -17 19 -19 2 -32 -9
-7 -12 -13 -7 -12 22 3 36 -1 31 -10 -3 -5 4 -11 15 -14 17 -5 19 -9 10 -26
-10 -18 -7 -22 19 -36 32 -17 38 -45 10 -52 -12 -4 -12 -3 -1 5 9 7 10 12 2
16 -13 9 -25 -18 -18 -38 7 -17 -20 -43 -31 -31 -4 4 -1 10 6 12 14 6 16 49 2
58 -15 9 -12 27 3 19 6 -4 4 1 -5 12 -14 16 -15 23 -6 32 8 8 8 12 1 12 -14 0
-25 -28 -13 -35 5 -3 7 -12 4 -20 -4 -8 -10 -13 -14 -10 -5 3 -12 -4 -15 -15
-6 -18 -9 -19 -23 -9 -14 11 -15 11 -5 0 6 -7 9 -20 6 -27 -6 -18 -54 -19 -51
-1 2 7 -6 12 -19 11 -18 0 -20 2 -12 13 8 9 8 13 0 13 -6 0 -14 0 -18 0 -4 0
-8 -6 -9 -14 -2 -12 9 -22 36 -31 27 -9 39 -19 34 -26 -3 -5 -11 -6 -17 -2 -7
4 -6 0 2 -10 15 -19 31 -14 31 11 0 12 3 13 8 5 4 -6 19 -16 34 -22 28 -11 32
-36 7 -52 -12 -8 -12 -10 1 -19 11 -7 11 -10 2 -10 -7 0 -10 -5 -7 -10 4 -6
12 -7 18 -4 7 4 9 4 5 -1 -4 -4 0 -14 10 -21 9 -7 12 -14 6 -14 -14 0 -54 38
-55 53 -1 7 -1 26 -1 42 1 17 -2 22 -4 13 -3 -10 -9 -18 -14 -18 -5 0 -7 7 -4
15 4 8 2 15 -4 15 -11 0 -22 -24 -22 -48 0 -14 2 -15 10 -2 5 8 13 11 17 6 4
-5 0 -13 -11 -20 -10 -6 -31 -21 -46 -33 -15 -12 -30 -20 -34 -18 -3 3 -2 0 3
-6 6 -8 5 -17 -5 -26 -12 -13 -12 -16 1 -29 8 -8 11 -22 8 -31 -4 -11 -3 -14
5 -9 8 4 10 2 6 -8 -3 -8 -14 -13 -24 -11 -14 3 -17 -1 -13 -13 4 -13 2 -12
-10 3 -9 11 -17 15 -17 8 0 -7 -5 -13 -12 -13 -6 0 -3 10 8 22 15 17 16 20 3
16 -11 -5 -15 0 -13 15 1 12 3 29 4 37 0 10 6 6 15 -10 l15 -25 -4 28 c-3 15
0 27 5 27 6 0 8 4 5 9 -3 5 1 14 9 21 8 7 15 9 15 5 0 -5 9 0 20 10 11 10 17
22 13 28 -3 6 -1 7 5 3 7 -4 12 -1 12 8 0 22 -36 40 -43 22 -3 -7 0 -19 6 -25
8 -8 7 -11 -6 -11 -12 0 -16 8 -15 35 1 34 11 45 22 26 8 -12 37 -8 37 5 0 5
-13 10 -28 12 -15 2 -32 8 -37 12 -5 6 3 8 20 5 l29 -4 -30 14 c-27 12 -31 11
-37 -6 -4 -10 -12 -19 -17 -19 -6 0 -8 -7 -5 -15 4 -8 10 -15 16 -15 5 0 6 5
2 12 -4 7 -3 8 4 4 16 -10 15 -26 -2 -26 -17 0 -33 19 -38 45 -1 11 -7 24 -13
28 -6 5 -4 7 5 6 30 -3 41 1 34 13 -5 8 -2 9 9 5 11 -4 17 -1 17 8 0 19 -24
19 -40 0 -7 -8 -17 -15 -23 -15 -5 0 -3 8 6 18 19 21 22 38 8 46 -5 4 -7 -3
-4 -14 4 -14 0 -20 -11 -20 -9 0 -16 5 -16 11 0 6 -7 3 -16 -5 -21 -21 -22
-21 -20 13 1 24 3 27 15 18 12 -10 12 -9 2 11 -7 12 -16 20 -22 17 -5 -4 -9 1
-9 11 0 13 3 14 15 4 8 -7 16 -10 16 -6 1 3 2 10 3 14 1 10 32 42 40 42 3 0 3
-7 0 -15 -4 -8 -14 -15 -23 -15 -13 0 -14 -2 -2 -9 10 -7 18 -5 26 5 9 13 13
13 30 -1 18 -15 18 -16 2 -11 -11 3 -26 -1 -35 -10 -15 -15 -14 -16 7 -9 16 5
26 3 32 -6 7 -12 10 -12 21 0 11 11 11 13 -1 6 -11 -6 -13 -4 -8 8 3 9 2 19
-3 22 -5 3 -8 11 -6 18 1 7 1 9 -1 5 -8 -14 -23 -9 -23 7 0 8 6 15 13 15 6 0
1 9 -12 19 -15 12 -21 23 -16 31 6 9 4 11 -4 6 -7 -5 -10 -15 -7 -23 5 -12 1
-14 -15 -10 -16 4 -19 2 -14 -11 3 -9 3 -13 -1 -10 -9 10 -46 -11 -39 -22 3
-4 -4 -6 -15 -3 -11 3 -20 13 -20 22 0 14 -2 14 -10 1 -5 -9 -5 -17 0 -20 8
-5 8 -62 -1 -95 -4 -16 19 -65 31 -65 5 0 10 -5 10 -10 0 -6 -5 -9 -11 -8 -6
2 -14 -4 -16 -12 -3 -11 -2 -11 4 -3 6 9 17 5 42 -16 26 -22 29 -29 18 -34 -9
-3 -18 -2 -21 4 -2 5 -3 4 -2 -2 1 -7 10 -13 20 -15 27 -4 32 -14 8 -14 -13 0
-22 -6 -22 -15 0 -8 5 -15 11 -15 5 0 7 5 4 10 -3 6 2 10 12 11 10 0 26 2 36
4 9 2 15 -1 11 -6 -3 -5 2 -9 10 -9 9 0 16 -5 16 -11 0 -5 5 -7 10 -4 6 4 5
-5 -2 -20 -6 -14 -17 -24 -24 -21 -8 3 -16 1 -20 -5 -3 -5 -14 -7 -24 -4 -19
6 -23 -16 -5 -32 4 -4 5 -3 2 3 -4 7 2 14 13 17 25 6 26 -11 3 -29 -17 -13
-17 -14 2 -8 16 6 18 4 8 -6 -9 -10 -20 -11 -45 -3 -22 7 -26 11 -13 12 18 1
18 3 -5 19 -14 9 -26 25 -28 36 -4 24 16 11 28 -18 7 -17 9 -17 9 -3 1 9 -8
26 -18 36 -11 11 -16 22 -13 26 4 3 -1 3 -9 0 -10 -4 -15 -16 -13 -31 1 -16
-3 -24 -13 -24 -11 0 -13 3 -5 13 6 7 9 22 7 32 -2 11 -4 24 -4 28 -1 5 -8 1
-17 -8 -18 -18 -30 -13 -18 7 5 7 9 17 9 23 0 5 9 11 20 12 20 3 20 3 0 -6
-21 -10 -18 -11 28 -15 27 -3 38 16 16 29 -6 4 -8 13 -5 21 3 8 1 14 -3 14 -5
0 -11 -6 -14 -12 -3 -9 -7 -7 -12 5 -7 16 -10 14 -26 -13 -11 -17 -16 -37 -12
-43 4 -7 -1 -6 -11 2 -16 13 -17 12 -10 -14 6 -22 4 -26 -7 -20 -11 7 -12 6
-2 -7 11 -12 9 -18 -7 -33 -17 -16 -20 -16 -20 -2 0 8 3 17 8 20 4 2 1 2 -5 1
-7 -2 -13 1 -13 6 0 6 -3 9 -7 9 -22 -4 -33 3 -33 19 0 14 2 15 10 2 8 -13 10
-12 10 3 0 9 -5 17 -11 17 -7 0 3 15 21 34 19 19 40 32 47 29 7 -3 13 0 13 6
0 6 -3 10 -7 10 -21 -3 -33 2 -33 16 0 8 -8 15 -17 15 -15 0 -16 -2 -3 -10 8
-5 10 -10 5 -10 -6 0 -15 -10 -20 -22 -6 -13 -16 -22 -23 -20 -7 1 -11 -4 -10
-10 2 -7 -2 -12 -7 -11 -6 1 -11 -10 -10 -25 0 -15 6 -26 12 -25 6 1 9 -6 6
-17 -5 -18 5 -25 30 -21 4 0 7 -4 7 -10 0 -6 -9 -8 -21 -4 -15 5 -19 4 -14 -5
4 -7 -4 -5 -18 5 -25 16 -26 16 -29 -7 -2 -13 -9 -22 -16 -20 -8 1 -11 -2 -6
-9 5 -9 2 -10 -10 -6 -10 4 -20 7 -22 7 -2 0 -4 5 -4 11 0 5 4 8 8 5 9 -5 37
10 38 21 0 4 3 15 7 23 10 27 14 70 6 65 -4 -3 -10 -1 -14 5 -3 5 2 10 12 11
14 0 15 2 3 6 -8 3 -23 15 -32 27 -17 20 -17 20 -13 1 13 -68 16 -75 27 -69 7
4 8 3 4 -5 -6 -8 -11 -9 -20 -2 -10 8 -13 4 -14 -19 0 -17 4 -30 9 -30 5 0 9
-5 9 -11 0 -5 -4 -8 -9 -5 -12 8 -34 -21 -26 -34 3 -5 -2 -10 -14 -10 -11 0
-23 5 -26 10 -7 12 -25 4 -25 -11 0 -5 7 -9 15 -9 13 0 13 -2 3 -14 -18 -19
-30 1 -22 37 3 16 1 27 -5 27 -6 0 -11 -4 -11 -10 0 -5 -8 -10 -17 -10 -10 0
-14 4 -8 8 13 10 17 32 6 32 -5 0 -13 -9 -16 -20 -3 -11 -11 -20 -17 -20 -6 0
-6 -6 2 -15 7 -8 9 -15 4 -15 -14 0 19 -20 33 -20 7 0 10 7 7 18 -5 13 -4 14
4 3 19 -26 4 -40 -29 -28 -18 7 -27 17 -24 25 2 7 -3 16 -12 19 -9 4 -19 1
-21 -5 -2 -7 -8 -12 -13 -12 -6 0 -8 4 -5 9 4 5 1 11 -6 13 -6 2 -12 12 -14
21 -1 9 1 15 6 12 5 -3 10 -2 13 2 2 5 2 2 0 -5 -6 -26 8 -32 38 -17 25 13 28
20 22 43 -3 15 -7 39 -7 53 0 17 -4 25 -12 22 -12 -5 -13 -27 -1 -39 4 -4 7
-17 6 -28 0 -15 -5 -10 -15 16 -17 39 -43 56 -55 36 -4 -7 -6 -15 -3 -17 3 -3
9 1 13 8 6 9 11 10 15 2 4 -6 4 -11 0 -11 -4 0 1 -8 10 -19 16 -17 16 -19 -3
-24 -20 -5 -39 8 -40 28 0 6 -7 11 -16 13 -8 2 -15 0 -14 -5 4 -22 -2 -25 -16
-7 -11 14 -14 15 -9 3 3 -10 1 -20 -5 -24 -7 -3 -11 3 -11 15 0 12 -4 18 -10
15 -15 -9 -12 4 4 21 9 9 17 10 21 4 7 -11 55 -10 55 2 0 4 -10 13 -22 19 -21
11 -22 11 -10 -4 11 -13 10 -15 -7 -10 -16 4 -20 11 -17 29 3 14 1 22 -5 19
-5 -4 -9 -15 -9 -25 0 -20 -13 -33 -24 -23 -3 3 -1 12 6 20 8 10 8 17 -1 26
-10 9 -11 8 -6 -4 4 -10 0 -19 -10 -23 -9 -3 -13 -11 -10 -16 8 -13 -51 -4
-74 11 -14 9 -14 10 1 5 9 -3 19 0 22 7 3 9 7 9 14 -1 7 -11 10 -11 15 2 3 8
1 18 -5 22 -7 4 -8 3 -4 -4 5 -8 1 -10 -9 -5 -13 4 -14 8 -4 14 7 4 17 5 21 3
4 -3 8 6 8 20 0 17 5 26 16 26 10 0 14 6 10 15 -3 8 0 15 7 15 7 0 8 3 2 8
-15 11 -20 56 -5 47 9 -6 9 -2 0 14 -6 12 -10 29 -9 39 1 9 -3 29 -11 44 l-13
27 -18 -22 c-15 -19 -16 -24 -3 -38 20 -22 19 -46 -1 -29 -9 7 -18 10 -22 6
-3 -3 -1 -6 5 -6 23 0 32 -37 19 -69 -7 -17 -16 -28 -20 -24 -4 3 -7 -2 -7
-11 0 -20 -39 -70 -57 -73 -6 -1 -14 5 -17 13 -5 12 -1 14 16 9 18 -6 19 -5 7
8 -19 20 -41 10 -33 -15 6 -19 5 -19 -23 -2 l-28 17 27 -24 c25 -22 26 -26 13
-43 -12 -16 -17 -17 -30 -6 -13 10 -18 11 -28 1 -7 -7 -7 -11 -2 -9 6 2 10 -1
10 -7 0 -5 -4 -9 -8 -7 -5 1 -6 -2 -2 -8 3 -6 9 -8 13 -6 4 2 13 -2 20 -10 11
-12 10 -14 -4 -14 -13 0 -14 -3 -4 -15 9 -10 9 -15 1 -15 -10 0 -15 13 -12 33
0 4 -6 7 -14 7 -8 0 -15 -9 -15 -21 0 -11 4 -17 10 -14 5 3 10 -1 10 -9 0 -9
3 -15 8 -15 19 3 32 -2 32 -12 0 -8 -4 -9 -13 0 -8 6 -16 8 -19 5 -3 -3 -20 9
-39 25 -18 17 -36 28 -41 25 -11 -7 0 58 13 71 5 5 9 18 10 30 0 11 3 15 5 8
3 -7 12 -9 20 -6 10 4 12 0 8 -11 -3 -9 -11 -13 -17 -9 -6 4 -7 1 -2 -6 5 -9
12 -7 26 8 25 27 24 38 -3 37 -14 -1 -24 6 -26 18 -2 11 0 16 7 12 7 -5 8 -1
4 10 -5 14 -3 16 11 11 11 -5 15 -3 10 5 -5 8 -2 9 10 5 11 -4 15 -3 11 4 -4
6 -13 8 -21 5 -18 -7 -18 2 0 20 8 7 16 19 19 26 3 9 9 7 21 -7 15 -19 16 -19
6 8 -13 36 -13 37 5 31 8 -4 15 -1 15 6 0 6 5 8 12 4 6 -4 8 -3 4 4 -3 5 0 12
6 15 7 2 0 4 -16 4 -19 0 -24 -2 -15 -8 13 -8 12 -10 -11 -13 -6 0 -19 -14
-29 -29 -12 -19 -20 -24 -23 -15 -3 7 1 18 8 23 7 6 14 21 16 35 2 14 8 31 15
37 6 7 9 21 6 32 -3 10 0 22 6 25 7 5 8 1 4 -11 -6 -15 -5 -16 9 -3 9 8 14 18
12 22 -2 3 3 13 12 22 8 9 12 22 9 28 -4 7 1 4 10 -7 11 -12 15 -14 12 -5 -7
22 12 52 29 46 10 -4 12 -2 8 6 -5 8 -2 9 9 5 10 -3 17 -3 17 1 0 4 18 7 40 7
22 0 40 -3 40 -7 0 -5 7 -8 16 -8 8 0 22 -7 31 -15 8 -9 20 -14 27 -12 6 2 17
-2 24 -10 8 -7 18 -11 23 -8 5 4 6 -1 3 -9 -3 -9 -11 -16 -17 -16 -6 0 -7 -3
-4 -7 4 -3 15 1 26 11 17 16 19 16 25 0 4 -10 12 -14 22 -10 15 6 15 4 3 -10
-13 -16 -12 -16 8 -5 16 8 23 8 23 1 0 -8 20 -10 59 -7 36 2 65 0 72 -7 9 -8
10 -8 5 1 -4 8 2 15 19 19 14 3 25 11 25 16 0 6 7 7 16 4 8 -3 12 -2 9 4 -3 6
1 10 9 10 9 0 16 -6 16 -12 0 -8 3 -9 8 -3 4 6 16 15 26 21 11 6 22 16 24 24
3 7 0 10 -6 6 -6 -3 -14 -1 -18 6 -4 7 -4 10 1 6 4 -4 15 -2 23 5 11 8 14 8 9
0 -4 -6 -3 -14 3 -18 5 -3 10 0 10 8 0 9 10 13 28 12 15 -1 31 1 37 4 16 9 45
8 45 -1 0 -4 9 -3 19 4 17 10 18 14 5 33 -8 12 -11 25 -7 30 5 4 0 5 -10 2
-10 -4 -23 -7 -28 -7 -5 0 -9 -6 -9 -13 0 -7 -6 -21 -13 -31 -12 -16 -14 -16
-14 -2 0 9 4 16 9 16 4 0 8 7 8 16 0 13 -3 14 -13 5 -8 -6 -22 -9 -33 -7 -10
2 -46 -11 -79 -28 -46 -24 -59 -36 -57 -51 2 -16 1 -17 -7 -5 -5 8 -7 18 -5
22 3 4 0 8 -6 8 -6 0 -13 -7 -16 -15 -4 -8 -10 -12 -15 -10 -5 3 -21 -1 -37
-9 -16 -8 -40 -12 -53 -9 l-24 6 20 -24 20 -24 -27 24 c-15 13 -34 21 -42 18
-9 -4 -15 -1 -13 5 2 9 -17 17 -50 20 -7 1 -11 5 -10 11 1 5 -19 16 -45 24
-27 9 -45 20 -41 26 4 6 1 7 -7 2 -7 -4 -15 -2 -19 4 -12 19 -109 22 -153 4
-22 -9 -37 -21 -35 -27 3 -7 -2 -21 -10 -31 -13 -17 -15 -17 -10 -2 4 9 4 17
1 17 -30 0 -129 -182 -149 -275 -2 -5 -10 -28 -19 -50 -10 -22 -17 -41 -17
-42 0 -1 -9 -26 -20 -55 -22 -58 -23 -63 -34 -125 -4 -24 -10 -45 -15 -48 -4
-3 -11 -22 -16 -42 -9 -44 -8 -43 -18 -64 -4 -9 -6 -20 -5 -25 1 -5 0 -12 -1
-16 -1 -5 -3 -11 -4 -15 -9 -48 -31 -103 -40 -103 -19 0 -159 61 -188 82 -16
11 -28 17 -28 13 0 -17 -50 31 -51 49 -1 15 -3 16 -6 4 -4 -14 -9 -13 -43 10
-33 21 -38 28 -27 40 10 13 9 14 -9 4 -21 -11 -34 -7 -34 10 0 5 5 6 12 2 7
-4 8 -3 4 5 -4 6 -12 9 -17 5 -15 -9 -99 49 -99 69 0 9 4 17 9 17 9 0 46 79
43 92 -1 3 5 12 13 18 8 7 15 16 15 21 0 4 13 30 28 56 16 26 29 53 30 58 1 6
17 36 34 68 18 32 44 80 58 105 14 26 42 77 62 113 21 37 34 69 31 73 -4 3 -2
6 3 6 6 0 16 16 23 35 7 19 18 40 25 47 7 7 26 38 43 69 29 54 30 56 11 68
-16 10 -17 13 -4 26 8 8 24 15 35 15 14 0 23 11 31 36 7 19 9 38 6 41 -7 8 12
43 24 43 15 0 51 40 45 50 -3 4 -2 10 2 12 5 1 24 35 44 73 20 39 46 87 58
108 11 21 21 40 21 42 0 3 -213 5 -474 5 -465 0 -474 0 -479 -20 -3 -11 -13
-20 -22 -20 -9 0 -19 9 -22 20 -5 20 -14 20 -429 20 l-424 0 0 -1085z m755
965 c0 -18 -6 -26 -23 -28 -24 -4 -38 18 -28 44 3 9 15 14 28 12 17 -2 23 -10
23 -28z m143 7 c4 -20 -25 -34 -40 -19 -15 15 -1 44 19 40 10 -2 19 -11 21
-21z m4006 -53 c9 -3 16 -12 16 -18 0 -18 -21 -35 -36 -29 -15 5 -19 35 -7 46
8 8 8 8 27 1z m-1454 -50 c11 -12 10 -18 -3 -32 -16 -15 -18 -15 -34 0 -13 14
-14 20 -3 32 7 9 16 16 20 16 4 0 13 -7 20 -16z m-2440 -4 c0 -5 -4 -10 -10
-10 -5 0 -10 5 -10 10 0 6 5 10 10 10 6 0 10 -4 10 -10z m3820 -5 c15 -17 5
-35 -20 -35 -22 0 -33 23 -17 39 15 15 22 14 37 -4z m-4603 -21 c3 -8 1 -20
-6 -27 -14 -14 -47 15 -37 32 10 16 36 13 43 -5z m4236 2 c9 -22 -19 -42 -37
-26 -19 15 -10 40 14 40 10 0 20 -6 23 -14z m-1088 -7 c12 -19 -4 -59 -24 -59
-26 0 -44 25 -36 50 7 21 49 28 60 9z m-2497 -63 c4 -21 -14 -37 -35 -29 -14
5 -18 35 -6 47 12 12 38 1 41 -18z m2577 -72 c12 -12 13 -19 4 -30 -6 -8 -18
-14 -26 -14 -19 0 -28 27 -13 45 15 19 15 19 35 -1z m-1945 -4 c0 -5 -4 -10
-10 -10 -5 0 -10 5 -10 10 0 6 5 10 10 10 6 0 10 -4 10 -10z m-117 -24 c3 -8
-1 -20 -9 -27 -12 -10 -18 -9 -31 3 -8 9 -12 21 -9 27 10 16 43 14 49 -3z
m-710 -28 c7 -21 -4 -38 -23 -38 -10 0 -20 6 -23 13 -7 20 4 37 23 37 10 0 20
-6 23 -12z m4232 -13 c0 -13 -8 -21 -22 -23 -17 -3 -23 2 -23 16 0 10 3 22 7
26 13 13 38 1 38 -19z m-4525 -44 c0 -23 -9 -31 -26 -24 -17 6 -18 40 -1 46
17 6 27 -1 27 -22z m4240 -1 c0 -10 -6 -20 -12 -23 -21 -7 -38 4 -38 23 0 10
6 20 13 23 20 7 37 -4 37 -23z m-3905 -96 c18 -18 16 -33 -7 -47 -35 -22 -66
21 -36 51 16 16 23 15 43 -4z m3215 -64 c11 -7 12 -14 4 -27 -15 -24 -33 -28
-40 -9 -7 18 1 46 13 46 4 0 15 -5 23 -10z m-3270 -40 c0 -5 -7 -10 -15 -10
-8 0 -15 5 -15 10 0 6 7 10 15 10 8 0 15 -4 15 -10z m1485 0 c3 -5 -1 -10 -10
-10 -9 0 -13 5 -10 10 3 6 8 10 10 10 2 0 7 -4 10 -10z m-1530 -30 c0 -18 -6
-26 -23 -28 -13 -2 -25 3 -28 12 -10 26 4 48 28 44 17 -2 23 -10 23 -28z
m2065 20 c8 -5 11 -10 5 -10 -5 0 -17 5 -25 10 -8 5 -10 10 -5 10 6 0 17 -5
25 -10z m265 -10 c10 -11 16 -20 13 -20 -3 0 -13 9 -23 20 -10 11 -16 20 -13
20 3 0 13 -9 23 -20z m-1655 -19 c0 -20 -17 -31 -37 -24 -7 3 -13 13 -13 24 0
14 7 19 25 19 18 0 25 -5 25 -19z m950 -5 c0 -9 -30 -14 -35 -6 -4 6 3 10 14
10 12 0 21 -2 21 -4z m-280 -47 c0 -6 -4 -7 -10 -4 -5 3 -10 11 -10 16 0 6 5
7 10 4 6 -3 10 -11 10 -16z m373 8 c3 -8 0 -14 -7 -14 -7 0 -13 6 -13 14 0 7
4 13 8 13 4 0 9 -6 12 -13z m1797 -36 c0 -27 -19 -36 -37 -18 -18 18 -9 37 18
37 12 0 19 -7 19 -19z m-3565 -61 c3 -5 -1 -10 -9 -10 -9 0 -16 5 -16 10 0 6
4 10 9 10 6 0 13 -4 16 -10z m1365 6 c0 -3 -4 -8 -10 -11 -5 -3 -10 -1 -10 4
0 6 5 11 10 11 6 0 10 -2 10 -4z m-952 -79 c4 -20 -25 -34 -40 -19 -15 15 -1
44 19 40 10 -2 19 -11 21 -21z m-908 -12 c0 -18 -5 -25 -19 -25 -11 0 -21 6
-24 13 -7 20 4 37 24 37 14 0 19 -7 19 -25z m4235 0 c0 -30 -39 -27 -43 3 -3
20 0 23 20 20 15 -2 23 -10 23 -23z m-3491 -4 c9 -14 -4 -41 -19 -41 -18 0
-28 17 -21 35 6 17 32 20 40 6z m-331 -35 c8 -20 -20 -43 -35 -28 -14 14 -3
42 16 42 7 0 16 -6 19 -14z m127 -5 c0 -27 -19 -36 -37 -18 -18 18 -9 37 18
37 12 0 19 -7 19 -19z m388 -9 c3 -16 -2 -22 -17 -22 -26 0 -36 17 -20 36 16
19 33 13 37 -14z m3848 17 c3 -6 0 -18 -9 -26 -18 -18 -37 -9 -37 18 0 21 34
27 46 8z m-1782 -34 c-10 -8 -14 -15 -9 -14 6 1 16 1 24 0 12 -1 12 -3 -2 -13
-14 -11 -14 -16 -3 -31 13 -16 15 -16 37 7 13 13 27 22 31 20 11 -7 -14 -44
-29 -44 -6 0 -15 -5 -19 -12 -4 -6 -3 -8 3 -5 16 10 73 18 73 10 0 -3 -7 -15
-17 -25 -13 -14 -13 -18 -2 -18 8 0 20 -4 28 -9 12 -8 12 -12 2 -24 -8 -10 -9
-17 -1 -22 5 -3 10 1 10 9 0 24 17 28 23 5 3 -12 3 -18 0 -15 -4 3 -15 -1 -25
-11 -10 -9 -19 -13 -19 -10 -1 4 -2 12 -3 17 -1 12 -16 14 -16 3 0 -5 3 -16 6
-25 3 -10 0 -26 -6 -35 -11 -17 -11 -17 -6 0 6 18 -9 24 -19 7 -4 -6 -15 -8
-26 -5 -14 5 -19 1 -20 -12 0 -11 -3 -13 -6 -5 -4 10 -8 9 -19 -5 -7 -10 -14
-15 -14 -11 0 9 46 59 56 60 4 0 10 -6 14 -12 6 -9 11 -6 20 10 9 17 9 24 0
30 -13 8 4 18 48 29 4 2 -2 6 -13 10 -11 5 -24 5 -30 1 -5 -4 -19 -10 -29 -14
-16 -6 -17 -4 -5 10 11 14 10 15 -7 12 -14 -2 -19 3 -20 22 -2 45 -4 48 -29
54 -24 6 -24 6 -8 41 9 19 23 35 32 35 11 0 10 -4 -5 -15z m-248 -4 c-4 -5 -2
-21 4 -35 5 -14 7 -26 5 -26 -9 0 -25 51 -19 61 3 5 7 9 10 9 3 0 3 -4 0 -9z
m369 -61 c-3 -5 1 -10 7 -13 10 -3 9 -8 -2 -22 -14 -17 -13 -18 3 -12 17 6 25
-7 9 -17 -15 -9 -32 11 -30 35 2 18 -2 24 -14 23 -10 -1 -18 2 -18 7 0 5 7 9
16 9 9 0 12 5 8 13 -5 8 -3 8 9 -2 9 -7 15 -17 12 -21z m-555 -8 c0 -5 -11
-19 -25 -32 -14 -13 -25 -19 -25 -14 0 5 9 15 20 22 12 7 18 17 15 22 -3 6 -1
10 4 10 6 0 11 -4 11 -8z m-590 -67 c0 -8 0 -18 1 -22 0 -4 -4 -9 -9 -11 -5
-1 -9 9 -9 23 0 14 3 25 8 25 5 0 9 -7 9 -15z m521 -8 c-10 -9 -11 -8 -5 6 3
10 9 15 12 12 3 -3 0 -11 -7 -18z m-554 -7 c-3 -21 -17 -40 -17 -22 0 13 11
42 16 42 2 0 3 -9 1 -20z m58 10 c3 -5 1 -10 -4 -10 -6 0 -11 5 -11 10 0 6 2
10 4 10 3 0 8 -4 11 -10z m62 -4 c-3 -8 4 -25 16 -39 20 -22 39 -62 21 -44 -4
4 -18 0 -31 -8 -22 -15 -23 -14 -23 10 0 14 -4 25 -10 25 -5 0 -7 7 -4 15 4 8
11 12 17 8 6 -3 7 -1 3 5 -4 7 -15 12 -24 12 -12 1 -10 5 8 15 32 18 33 18 27
1z m-164 -10 c9 -7 17 -17 17 -22 0 -20 18 -34 33 -28 9 3 14 11 10 17 -3 6
-1 7 6 3 6 -4 14 0 17 9 5 12 9 13 20 4 8 -6 14 -18 14 -25 0 -8 4 -14 9 -14
12 0 8 -40 -4 -41 -5 0 -16 -5 -22 -11 -10 -8 -13 -6 -13 5 0 10 7 15 20 12
23 -4 26 8 7 27 -8 7 -12 19 -9 26 2 6 0 12 -5 12 -5 0 -9 -9 -10 -20 -1 -11
2 -20 7 -20 5 0 -5 -13 -22 -30 -30 -30 -45 -39 -33 -19 4 6 -3 9 -20 7 -22
-2 -28 2 -31 19 -4 24 11 40 21 23 3 -5 1 -10 -5 -10 -6 0 -8 -4 -5 -10 10
-16 62 -12 62 4 0 16 -18 17 -28 3 -4 -5 -9 3 -13 17 -6 23 -9 25 -29 16 -20
-10 -21 -10 -4 3 17 14 17 16 -4 36 -25 23 -15 28 14 7z m-1867 -35 c-10 -16
-36 -13 -43 5 -8 22 18 37 36 20 7 -8 10 -19 7 -25z m2919 30 c-3 -5 -1 -12 5
-16 5 -3 10 -11 10 -16 0 -6 -4 -8 -8 -5 -5 3 -9 -8 -9 -24 0 -17 4 -30 9 -30
4 0 7 3 6 8 -2 12 14 42 23 42 5 0 3 -13 -6 -30 -9 -16 -19 -30 -23 -30 -11 1
-47 30 -36 30 5 0 10 9 11 20 1 11 -2 20 -8 20 -5 0 -1 9 8 20 18 21 28 27 18
11z m-505 -15 c0 -3 -4 -8 -10 -11 -5 -3 -10 -1 -10 4 0 6 5 11 10 11 6 0 10
-2 10 -4z m598 -21 c-3 -3 -9 2 -12 12 -6 14 -5 15 5 6 7 -7 10 -15 7 -18z
m-870 -5 c3 -9 -1 -11 -12 -7 -9 4 -16 2 -16 -3 0 -6 -5 -10 -11 -10 -5 0 -7
5 -4 10 3 6 1 10 -4 10 -6 0 -11 4 -11 8 0 13 54 6 58 -8z m466 4 c13 -5 14
-9 5 -21 -10 -11 -8 -15 9 -20 25 -6 28 -18 7 -27 -8 -3 -14 0 -12 7 1 8 -10
11 -32 9 -29 -2 -32 0 -21 13 7 8 9 15 6 15 -4 0 -1 7 6 15 16 17 13 16 32 9z
m-394 -19 c0 -2 -7 -5 -15 -9 -9 -3 -15 0 -15 9 0 9 6 12 15 9 8 -4 15 -7 15
-9z m-1680 -10 c14 -17 6 -45 -13 -45 -19 0 -50 36 -42 49 9 16 41 13 55 -4z
m1242 -12 c18 -19 20 -26 9 -32 -10 -6 -10 -13 -3 -28 8 -14 8 -23 0 -31 -8
-8 -4 -9 13 -6 21 5 22 4 6 -6 -26 -17 -35 -5 -32 44 2 27 -2 52 -11 63 -12
16 -13 14 -8 -18 3 -27 1 -38 -10 -42 -9 -4 -18 -1 -22 5 -4 6 -3 8 3 5 12 -8
25 17 15 27 -3 4 -7 15 -9 25 -4 25 22 22 49 -6z m1321 15 l-23 -11 26 -24
c35 -32 26 -38 -11 -8 -29 24 -29 25 -11 40 11 8 25 15 30 14 6 0 1 -5 -11
-11z m1662 -13 c0 -30 -39 -27 -43 3 -3 20 0 23 20 20 15 -2 23 -10 23 -23z
m-2628 3 c-2 -7 -11 -12 -21 -10 -18 3 -19 1 -10 -22 3 -9 10 -16 16 -16 5 0
7 4 4 8 -2 4 5 9 16 9 19 2 19 1 3 -11 -10 -7 -15 -18 -11 -24 3 -6 -1 -9 -11
-8 -10 2 -18 8 -18 14 0 21 -14 23 -25 3 -6 -12 -16 -21 -23 -21 -8 0 -7 4 3
10 12 7 11 12 -5 30 -16 18 -16 20 -2 14 9 -3 17 -2 17 4 0 6 12 15 28 20 37
14 44 14 39 0z m328 -8 c3 -6 -1 -7 -9 -4 -18 7 -21 14 -7 14 6 0 13 -4 16
-10z m655 0 c0 -5 -2 -10 -4 -10 -3 0 -8 5 -11 10 -3 6 -1 10 4 10 6 0 11 -4
11 -10z m-590 -10 c0 -5 -9 -14 -20 -20 -11 -6 -19 -16 -17 -23 1 -7 -3 -11
-10 -10 -6 1 -16 -4 -23 -12 -19 -23 -40 -6 -40 31 0 36 2 37 38 28 14 -4 21
-12 18 -20 -3 -7 -1 -16 5 -19 5 -4 9 -3 8 2 -4 21 2 33 17 33 8 0 12 5 9 10
-3 6 -1 10 4 10 6 0 11 -4 11 -10z m-142 -34 c-16 -5 -28 -14 -28 -19 0 -4 4
-6 9 -2 5 3 12 1 16 -4 7 -13 -47 -3 -60 10 -7 7 -4 8 9 3 14 -5 17 -4 12 4
-9 15 32 32 54 24 11 -5 7 -9 -12 -16z m195 0 c6 -14 2 -26 -14 -40 -18 -18
-21 -18 -16 -3 6 16 -8 23 -35 18 -5 0 -8 4 -8 9 0 12 2 12 33 1 32 -13 41 -3
20 21 -14 15 -14 19 -3 16 8 -2 19 -12 23 -22z m292 6 c-3 -3 -11 0 -18 7 -9
10 -8 11 6 5 10 -3 15 -9 12 -12z m160 8 c-11 -5 -14 -9 -7 -9 7 -1 10 -6 6
-12 -4 -7 -9 -7 -13 -1 -3 5 -14 8 -24 6 -9 -1 -15 2 -11 7 3 5 10 7 15 4 5
-4 9 -1 9 4 0 6 10 11 23 10 21 0 21 -1 2 -9z m-1192 -14 c11 -11 17 -12 26
-3 8 8 14 8 24 -2 10 -10 9 -11 -4 -6 -9 3 -22 -2 -30 -11 -8 -10 -9 -15 -2
-11 21 13 22 -9 2 -22 -19 -11 -20 -10 -18 11 5 34 -9 52 -27 37 -12 -10 -13
-9 -8 5 8 20 18 20 37 2z m163 1 c5 -4 0 -5 -10 -1 -13 5 -17 4 -13 -3 5 -7 0
-9 -12 -6 -13 3 -24 -2 -33 -16 -16 -26 -23 -27 -25 -2 -1 14 3 18 13 14 8 -3
14 1 14 8 0 15 53 20 66 6z m668 -2 c3 -9 14 -15 23 -13 12 2 19 -4 21 -19 2
-16 -2 -23 -13 -23 -9 0 -14 -4 -11 -8 3 -5 -1 -9 -8 -9 -7 0 -13 6 -13 14 0
7 9 13 20 13 11 0 17 3 13 7 -4 4 -15 8 -24 8 -9 0 -17 5 -17 10 0 6 -4 16 -8
23 -5 6 -4 12 1 12 6 0 13 -7 16 -15z m-2153 -27 c8 -29 -11 -55 -31 -43 -19
11 -29 49 -17 63 16 20 40 10 48 -20z m1682 25 c-7 -2 -13 -12 -14 -21 0 -10
-3 -12 -5 -5 -3 7 -13 9 -22 6 -13 -4 -12 -2 3 10 11 9 27 16 35 16 10 0 11
-2 3 -6z m425 -4 c-10 -5 -18 -19 -18 -30 0 -11 4 -18 9 -15 4 3 17 -1 27 -10
18 -15 18 -15 -1 -6 -11 5 -27 8 -36 7 -12 -2 -15 3 -11 24 5 26 18 41 37 41
6 -1 2 -5 -7 -11z m1076 -4 c19 -15 19 -15 -2 -35 -28 -27 -28 -33 3 -28 13 3
22 2 20 -3 -3 -4 8 -10 24 -14 16 -3 32 -13 35 -22 5 -13 4 -14 -8 -4 -8 7
-20 10 -25 7 -5 -4 -13 -1 -17 5 -4 8 -9 7 -16 -2 -8 -11 -9 -10 -5 3 5 15 -5
17 -52 9 -2 -1 3 -9 10 -18 13 -16 12 -17 -3 -5 -9 8 -21 11 -27 8 -5 -3 -12
1 -15 10 -3 8 -2 13 3 9 16 -9 39 6 36 23 -6 28 -6 28 -16 7 l-9 -20 3 20 c2
14 12 22 37 25 l35 6 -33 5 c-25 4 -36 1 -47 -13 -9 -13 -22 -19 -40 -16 -20
2 -32 -3 -44 -22 -14 -21 -14 -23 -1 -18 11 4 16 0 16 -13 0 -10 -2 -16 -4
-14 -3 2 -13 0 -23 -6 -13 -6 -19 -6 -19 1 0 5 6 10 13 10 6 1 1 6 -13 13 -23
11 -27 20 -20 45 1 4 5 -4 9 -17 6 -23 7 -23 21 -5 9 10 10 15 3 10 -9 -4 -13
-1 -13 9 0 11 5 15 15 11 8 -3 15 -2 15 3 0 12 52 35 78 33 12 0 22 3 22 8 0
15 32 11 54 -5z m-3396 -18 c4 -20 -25 -34 -40 -19 -15 15 -1 44 19 40 10 -2
19 -11 21 -21z m2099 1 c-3 -8 -6 -5 -6 6 -1 11 2 17 5 13 3 -3 4 -12 1 -19z
m-2162 -13 c0 -30 -39 -27 -43 3 -3 20 0 23 20 20 15 -2 23 -10 23 -23z m1512
8 c2 -6 -6 -8 -22 -5 -35 6 -40 19 -8 17 15 0 28 -6 30 -12z m468 7 c3 -6 -1
-7 -9 -4 -18 7 -21 14 -7 14 6 0 13 -4 16 -10z m425 6 c0 -2 -7 -7 -16 -10 -8
-3 -12 -2 -9 4 6 10 25 14 25 6z m241 -16 c6 0 7 5 4 10 -3 6 -1 10 5 10 7 0
10 -7 6 -15 -3 -8 0 -15 6 -15 6 0 9 -3 6 -6 -9 -9 -48 15 -47 29 0 9 2 9 6 0
2 -7 9 -13 14 -13z m142 8 c11 9 14 9 14 -3 0 -8 -4 -12 -9 -9 -4 3 -8 0 -8
-5 0 -6 5 -11 10 -11 6 0 10 -5 10 -12 0 -7 -6 -6 -17 4 -10 9 -25 13 -33 10
-8 -2 -12 -1 -8 3 4 5 2 15 -5 23 -10 13 -9 14 10 2 16 -11 25 -11 36 -2z
m1447 -8 c0 -24 -26 -38 -42 -22 -16 16 -2 42 22 42 13 0 20 -7 20 -20z
m-1622 -17 c-2 -23 1 -28 17 -25 18 2 18 2 3 -8 -10 -6 -18 -18 -18 -27 0 -9
-3 -13 -7 -10 -3 4 -12 2 -20 -4 -8 -7 -13 -8 -13 -1 0 5 8 13 18 17 16 7 15
8 -3 15 -11 5 -14 9 -7 9 8 1 10 6 5 14 -11 17 -13 38 -3 32 5 -3 11 -1 15 5
11 18 17 11 13 -17z m115 6 c3 -12 3 -18 0 -15 -4 3 -13 0 -21 -7 -13 -10 -14
-9 -7 3 6 8 10 18 11 23 3 14 4 17 8 17 2 0 6 -9 9 -21z m777 6 c0 -8 -2 -15
-4 -15 -2 0 -6 7 -10 15 -3 8 -1 15 4 15 6 0 10 -7 10 -15z m-1243 -1 c-3 -3
-12 -4 -19 -1 -8 3 -5 6 6 6 11 1 17 -2 13 -5z m253 -18 c0 -8 12 -19 28 -24
18 -7 21 -11 9 -11 -11 -1 -16 -6 -12 -13 4 -7 0 -5 -8 4 -8 10 -17 14 -23 8
-5 -5 -10 3 -11 21 -1 16 2 29 7 29 6 0 10 -6 10 -14z m374 6 c2 -4 -4 -8 -14
-8 -10 0 -16 4 -14 8 3 4 9 8 14 8 5 0 11 -4 14 -8z m-2863 -15 c-1 -12 -15
-9 -19 4 -3 6 1 10 8 8 6 -3 11 -8 11 -12z m804 -25 c-2 -2 -13 2 -24 10 -12
8 -18 17 -15 21 3 3 14 -2 25 -11 10 -9 17 -18 14 -20z m-42 -6 c7 4 9 3 4 -1
-4 -5 -16 -10 -26 -12 -17 -2 -18 0 -7 22 10 23 11 23 14 5 2 -12 8 -18 15
-14z m1697 19 c0 -8 -2 -15 -4 -15 -2 0 -6 7 -10 15 -3 8 -1 15 4 15 6 0 10
-7 10 -15z m879 -1 c-10 -13 -10 -17 2 -25 12 -7 11 -9 -3 -9 -20 0 -28 20
-14 37 16 18 31 16 15 -3z m-505 -15 c-3 -6 2 -16 12 -24 17 -12 16 -13 -9 -8
-21 4 -27 1 -28 -13 -1 -17 -2 -17 -6 -2 -3 14 -9 16 -22 9 -13 -7 -18 -6 -18
4 0 8 5 11 10 8 5 -3 13 1 18 8 7 11 9 11 9 1 0 -7 5 -10 10 -7 6 3 10 15 10
26 0 11 5 17 10 14 6 -4 8 -11 4 -16z m34 -4 c-3 -3 -9 2 -12 12 -6 14 -5 15
5 6 7 -7 10 -15 7 -18z m335 -2 c-5 -12 -2 -15 9 -10 9 3 19 0 21 -7 4 -10 -1
-12 -16 -9 -16 3 -18 2 -9 -5 11 -7 8 -10 -10 -14 -19 -3 -24 0 -26 16 -1 17
1 18 8 6 8 -12 10 -10 11 10 1 14 1 29 0 33 -1 5 3 6 8 2 6 -3 7 -13 4 -22z
m-502 -3 c6 0 7 5 3 12 -5 7 -3 8 5 3 9 -5 9 -11 3 -17 -14 -14 -45 -2 -36 14
6 9 9 9 12 0 2 -7 8 -12 13 -12z m470 6 c-7 -8 -14 -24 -16 -37 -9 -46 -53
-64 -51 -21 1 17 9 31 24 38 13 6 29 17 35 23 16 16 22 14 8 -3z m-1364 -2
c-3 -3 -12 -4 -19 -1 -8 3 -5 6 6 6 11 1 17 -2 13 -5z m28 -3 c3 -5 2 -12 -3
-15 -5 -3 -9 1 -9 9 0 17 3 19 12 6z m781 -9 c-3 -3 0 -12 6 -21 10 -13 10
-14 -2 -4 -16 15 -23 46 -8 37 5 -3 7 -9 4 -12z m71 -15 c6 2 14 -1 18 -6 4
-7 0 -8 -11 -4 -10 4 -15 2 -11 -4 3 -5 0 -10 -8 -10 -8 0 -15 10 -15 21 0 16
-3 18 -9 7 -5 -8 -11 -9 -15 -3 -9 15 17 22 29 7 6 -6 15 -10 22 -8z m-2792 3
c3 -5 -1 -10 -9 -10 -9 0 -16 5 -16 10 0 6 4 10 9 10 6 0 13 -4 16 -10z m960
0 c-3 -5 -11 -10 -16 -10 -6 0 -7 5 -4 10 3 6 11 10 16 10 6 0 7 -4 4 -10z
m735 6 c0 -2 -8 -10 -17 -17 -16 -13 -17 -12 -4 4 13 16 21 21 21 13z m624 -5
c3 -5 -3 -11 -15 -14 -16 -4 -18 -3 -8 9 13 16 16 17 23 5z m531 -1 c-3 -5
-12 -10 -18 -10 -7 0 -6 4 3 10 19 12 23 12 15 0z m-1929 -9 c-4 -5 -1 -11 6
-13 7 -3 3 -7 -10 -10 -19 -5 -20 -4 -11 13 5 10 12 19 15 19 3 0 3 -4 0 -9z
m844 5 c0 -3 -4 -8 -10 -11 -5 -3 -10 -1 -10 4 0 6 5 11 10 11 6 0 10 -2 10
-4z m1795 -6 c3 -5 1 -10 -4 -10 -6 0 -11 5 -11 10 0 6 2 10 4 10 3 0 8 -4 11
-10z m-1048 -6 c-3 -3 -12 -4 -19 -1 -8 3 -5 6 6 6 11 1 17 -2 13 -5z m429
-18 c1 -14 -4 -27 -12 -30 -17 -6 -18 8 -4 35 14 24 15 24 16 -5z m-880 -14
c-17 -16 -18 -16 -5 5 7 12 15 20 18 17 3 -2 -3 -12 -13 -22z m1134 3 c0 -14
-4 -25 -10 -25 -5 0 -10 5 -10 11 0 6 -9 8 -20 4 -27 -9 -25 8 3 21 33 17 37
16 37 -11z m-1290 5 c0 -5 -5 -10 -11 -10 -5 0 -7 5 -4 10 3 6 8 10 11 10 2 0
4 -4 4 -10z m1064 -20 c-6 -6 -10 -3 -10 10 0 13 4 16 10 10 7 -7 7 -13 0 -20z
m666 15 c0 -2 -9 -3 -19 -2 -11 0 -18 5 -15 9 4 6 34 0 34 -7z m-3306 -1 c22
-8 20 -51 -2 -63 -37 -20 -70 27 -40 57 14 14 20 14 42 6z m-354 -14 c0 -5 -2
-10 -4 -10 -3 0 -8 5 -11 10 -3 6 -1 10 4 10 6 0 11 -4 11 -10z m870 6 c0 -3
-4 -8 -10 -11 -5 -3 -10 -1 -10 4 0 6 5 11 10 11 6 0 10 -2 10 -4z m2543 -3
c-7 -2 -19 -2 -25 0 -7 3 -2 5 12 5 14 0 19 -2 13 -5z m-2339 -18 c3 -8 1 -15
-3 -15 -5 0 -11 7 -15 15 -3 8 -1 15 3 15 5 0 11 -7 15 -15z m2109 -2 c-7 -17
-18 -16 -32 1 -10 11 -7 14 12 12 15 0 23 -6 20 -13z m364 2 c0 -8 -4 -12 -9
-9 -5 3 -6 10 -3 15 9 13 12 11 12 -6z m-1096 -18 c-10 -9 -11 -8 -5 6 3 10 9
15 12 12 3 -3 0 -11 -7 -18z m1023 -3 c3 -8 2 -12 -4 -9 -6 3 -10 10 -10 16 0
14 7 11 14 -7z m-2607 -1 c-4 -3 -1 -13 6 -22 11 -14 10 -14 -5 -2 -21 15 -23
31 -6 31 6 0 8 -3 5 -7z m303 -26 c14 -11 18 -17 8 -14 -21 8 -31 -3 -17 -20
9 -9 8 -13 0 -13 -6 0 -11 5 -11 11 0 5 -4 8 -8 5 -5 -3 -9 1 -9 9 0 8 4 12 9
9 4 -3 8 2 8 10 0 9 -9 16 -20 16 -11 0 -20 4 -20 10 0 12 29 1 60 -23z m1970
22 c0 -6 -4 -7 -10 -4 -5 3 -11 -2 -11 -12 -1 -16 -2 -16 -6 -1 -3 14 -9 15
-29 8 -13 -5 -24 -7 -24 -4 0 6 36 19 61 21 10 1 19 -3 19 -8z m-2340 -19 c-8
-5 -17 -7 -19 -4 -3 3 1 9 9 14 8 5 17 7 19 4 3 -3 -1 -9 -9 -14z m1710 5 c-7
-9 -15 -13 -19 -10 -3 3 1 10 9 15 21 14 24 12 10 -5z m1216 -32 c-3 -4 -6 -1
-6 6 0 7 -4 9 -10 6 -6 -4 -7 1 -3 11 6 15 7 15 15 -1 6 -9 7 -19 4 -22z
m-2894 20 c-6 -2 -10 -9 -6 -14 3 -5 -2 -9 -12 -9 -13 0 -14 3 -4 15 7 8 18
15 24 14 7 0 6 -2 -2 -6z m1191 -8 c-3 -9 -8 -14 -10 -11 -3 3 -2 9 2 15 9 16
15 13 8 -4z m514 0 c0 -8 -7 -15 -15 -15 -12 0 -12 3 -2 15 7 8 13 15 15 15 1
0 2 -7 2 -15z m64 -8 c-10 -9 -11 -8 -5 6 3 10 9 15 12 12 3 -3 0 -11 -7 -18z
m695 -68 c0 -46 -3 -94 -7 -106 -5 -13 -4 -25 2 -29 6 -3 6 -11 1 -17 -5 -7
-8 -26 -7 -44 1 -18 -2 -30 -6 -27 -5 3 -6 -9 -2 -27 5 -25 3 -31 -8 -27 -8 3
-23 2 -34 -3 l-20 -8 20 -1 c18 -1 17 -4 -10 -26 -17 -15 -22 -24 -12 -20 19
6 21 -1 8 -23 -8 -12 -12 -12 -24 -2 -12 9 -16 9 -20 -1 -3 -8 -6 -6 -6 5 -1
10 -6 15 -11 12 -6 -4 -10 -3 -9 2 3 20 -2 25 -16 13 -11 -10 -18 -9 -30 4
-20 20 -32 21 -16 2 13 -16 -3 -27 -27 -18 -10 3 -10 7 0 20 11 13 10 14 -9 3
-14 -7 -23 -8 -23 -2 0 14 13 20 48 23 17 1 28 6 25 10 -2 5 -14 6 -26 2 -27
-8 -23 -4 28 26 29 17 36 19 26 7 -7 -9 -9 -17 -3 -17 11 0 24 28 18 38 -2 4
2 13 10 20 8 7 14 9 14 5 0 -4 4 -1 9 7 14 21 4 29 -27 21 -15 -5 -38 -7 -52
-5 -14 1 -19 0 -12 -2 6 -3 12 -12 12 -20 0 -9 -4 -13 -10 -9 -5 3 -18 -3 -30
-15 -11 -11 -20 -17 -20 -14 0 4 -11 -1 -25 -10 -14 -9 -25 -12 -25 -7 0 13
90 111 102 111 5 0 6 -4 3 -10 -3 -5 -1 -10 5 -10 7 0 9 8 5 21 -5 14 -3 19 3
15 6 -3 14 3 17 15 6 17 9 19 16 8 7 -11 9 -10 9 4 0 10 11 28 25 41 14 13 25
29 25 35 0 7 4 10 8 7 5 -3 9 1 9 9 0 8 -5 11 -10 8 -5 -3 -14 1 -19 8 -8 11
-9 10 -5 -3 6 -17 -30 -48 -60 -52 -8 -1 -18 -7 -21 -12 -17 -23 -105 -93
-112 -89 -5 3 -18 -12 -31 -32 -12 -21 -24 -39 -25 -41 -1 -2 -13 1 -26 8 -21
10 -21 10 -5 -3 21 -18 22 -27 1 -27 -8 0 -13 -4 -10 -9 4 -5 3 -17 0 -26 -5
-13 -8 -14 -15 -3 -5 7 -20 13 -34 13 -23 1 -24 -1 -10 -15 14 -13 17 -13 25
0 8 12 10 12 11 -5 1 -11 1 -31 0 -45 0 -14 2 -32 6 -40 8 -18 10 -26 12 -41
0 -5 5 -8 9 -5 10 6 59 -31 51 -39 -4 -3 -19 -3 -34 1 -15 4 -22 9 -17 13 5 3
-56 6 -137 7 -128 1 -151 4 -188 23 -61 30 -115 28 -168 -9 -56 -38 -68 -38
-47 2 22 41 38 59 46 51 3 -4 6 4 6 16 0 12 4 20 9 17 9 -6 23 17 26 47 2 16
0 16 -22 2 -13 -9 -23 -12 -23 -8 0 5 -6 -3 -13 -16 -6 -14 -18 -26 -26 -29
-8 -3 -11 0 -7 7 4 6 2 11 -3 11 -14 0 -14 -17 -1 -25 6 -4 5 -12 -5 -21 -8
-8 -20 -33 -26 -54 -7 -22 -16 -40 -21 -40 -6 0 -44 -14 -85 -30 -42 -17 -78
-28 -81 -25 -6 6 25 89 55 142 13 23 27 59 31 80 6 27 13 38 25 37 9 -1 17 2
17 7 0 12 57 11 65 -1 3 -5 12 -10 18 -10 8 0 7 3 -2 9 -19 12 12 21 91 26 60
3 94 -7 82 -26 -3 -5 5 -5 18 0 13 4 28 6 35 4 16 -6 26 14 12 23 -7 4 -9 3
-5 -4 4 -7 -5 -10 -26 -8 -46 3 -47 23 -1 24 21 1 53 6 71 11 28 8 33 8 28 -4
-3 -8 -2 -14 2 -14 20 3 25 -2 12 -12 -13 -9 -13 -10 2 -6 17 6 36 -9 36 -28
0 -5 6 -11 14 -13 9 -2 8 0 -2 7 -8 6 -11 11 -7 11 4 0 3 9 -2 19 -9 16 -6 22
17 37 15 9 33 26 41 36 7 11 19 17 26 14 8 -3 15 -1 17 3 4 10 116 61 134 61
8 0 14 5 14 10 0 6 6 10 14 10 7 0 25 9 40 21 14 11 26 18 26 14 0 -3 11 2 25
11 14 9 31 14 39 11 10 -4 13 -1 9 9 -3 9 2 14 17 14 11 0 19 4 16 9 -5 7 19
20 47 25 4 0 11 6 15 12 10 15 64 41 82 39 12 -2 15 -19 16 -86z m-231 74
c-11 -3 -26 -12 -33 -21 -7 -10 -15 -16 -17 -14 -15 8 -34 0 -29 -12 7 -18
-16 -32 -26 -16 -5 8 -13 9 -21 4 -12 -6 -12 -5 0 9 7 9 18 17 23 17 5 0 16 7
24 15 8 8 21 12 28 9 8 -3 17 -1 21 5 3 6 16 10 28 10 20 -1 20 -2 2 -6z
m1563 -31 c4 -28 -24 -41 -44 -20 -20 20 -7 50 20 46 13 -2 22 -12 24 -26z
m-3938 -22 c0 -10 -6 -20 -12 -23 -21 -7 -38 4 -38 23 0 10 6 20 13 23 20 7
37 -4 37 -23z m575 12 c-3 -3 -11 0 -18 7 -9 10 -8 11 6 5 10 -3 15 -9 12 -12z
m-390 -21 c3 -5 2 -12 -3 -15 -5 -3 -9 1 -9 9 0 17 3 19 12 6z m415 -34 c-10
-9 -11 -9 -6 1 4 7 1 15 -8 18 -9 3 -13 10 -10 15 3 5 12 2 21 -7 13 -12 13
-18 3 -27z m73 18 c-7 -21 -12 -19 -10 4 0 11 5 18 9 15 4 -3 5 -11 1 -19z
m-636 -17 c-3 -7 -5 -2 -5 12 0 14 2 19 5 13 2 -7 2 -19 0 -25z m1058 22 c3
-6 -1 -7 -9 -4 -18 7 -21 14 -7 14 6 0 13 -4 16 -10z m197 -18 c3 -14 5 -14
18 0 8 8 21 13 29 10 8 -3 11 0 7 7 -4 6 -1 11 7 11 9 0 13 -8 10 -23 -4 -20
-9 -23 -35 -19 -23 4 -29 2 -23 -8 5 -8 4 -11 -3 -6 -5 3 -13 0 -16 -6 -4 -9
-5 -8 -5 2 2 29 -1 41 -9 36 -5 -3 -9 1 -9 8 0 19 25 8 29 -12z m113 7 c-4 -5
-12 -9 -18 -8 -9 0 -8 2 1 6 6 2 9 10 6 15 -4 7 -2 8 5 4 6 -4 9 -12 6 -17z
m-1259 -1 c3 -4 -1 -5 -10 -4 -8 1 -18 5 -22 8 -3 4 1 5 10 4 8 -1 18 -5 22
-8z m1399 2 c3 -5 1 -10 -4 -10 -6 0 -11 5 -11 10 0 6 2 10 4 10 3 0 8 -4 11
-10z m671 -2 c4 -6 3 -8 -3 -5 -6 4 -13 -2 -16 -13 -3 -11 -11 -20 -19 -19
-10 0 -10 2 0 6 6 2 9 9 6 14 -3 6 -12 5 -22 -3 -13 -11 -14 -11 -10 2 2 8 12
15 21 15 8 0 19 4 23 8 10 9 12 9 20 -5z m847 -13 c4 -8 -1 -11 -12 -8 -10 2
-18 10 -18 18 0 16 23 9 30 -10z m-2314 -25 c0 -10 -3 -9 -8 4 -5 14 -10 16
-15 8 -4 -7 -12 -12 -18 -12 -6 0 -3 9 7 20 19 22 35 12 34 -20z m764 25 c-3
-9 -8 -14 -10 -11 -3 3 -2 9 2 15 9 16 15 13 8 -4z m144 -21 c-9 -9 -28 6 -21
18 4 6 10 6 17 -1 6 -6 8 -13 4 -17z m1360 11 c0 -8 -4 -12 -9 -9 -5 3 -6 10
-3 15 9 13 12 11 12 -6z m-2946 -41 c13 -16 20 -76 9 -69 -5 3 -7 13 -4 23 5
16 4 16 -9 -1 -12 -15 -16 -15 -26 -3 -12 14 -36 16 -46 3 -3 -4 -2 -5 2 -2 3
3 12 -3 20 -13 8 -9 12 -11 8 -4 -3 6 -1 12 4 12 6 0 11 -9 11 -21 0 -11 -4
-17 -10 -14 -9 6 -14 -8 -11 -27 0 -5 -4 -8 -9 -8 -6 0 -8 10 -4 24 3 15 1 25
-9 29 -10 4 -13 -2 -11 -21 1 -15 3 -29 4 -32 1 -3 2 -8 1 -12 0 -5 3 -8 8 -8
12 0 36 30 25 31 -5 0 0 4 11 8 11 5 25 4 33 -2 14 -11 14 -11 30 23 l12 25
-7 -25 c-3 -14 -6 -33 -5 -42 0 -10 -3 -20 -9 -23 -5 -4 -9 -13 -9 -21 0 -8 5
-12 10 -9 6 4 7 11 4 17 -4 6 -2 8 3 5 6 -4 16 0 23 8 10 12 10 18 0 30 -8 10
-9 15 -1 15 6 0 13 -11 17 -25 3 -14 10 -23 14 -20 5 3 12 0 16 -6 4 -8 3 -9
-4 -5 -7 4 -12 2 -12 -4 0 -6 -9 -10 -20 -8 -10 2 -19 -1 -19 -6 1 -16 -23
-24 -60 -19 -20 3 -33 2 -29 -2 4 -4 3 -17 -3 -27 -8 -14 -14 -17 -22 -9 -7 7
-6 15 3 26 11 13 11 18 0 28 -10 10 -11 9 -5 -2 6 -10 4 -12 -5 -6 -10 6 -9
11 5 22 18 13 18 13 -1 14 -10 1 -24 1 -30 0 -14 -2 -39 27 -30 36 3 3 6 1 6
-5 0 -7 9 -12 21 -12 12 0 19 5 16 13 -2 6 -9 11 -15 10 -12 -3 -7 14 14 56 7
14 11 28 9 31 -5 8 39 5 52 -3 4 -3 14 1 20 9 8 8 9 15 3 19 -6 3 -10 2 -10
-4 0 -13 -41 1 -42 14 0 6 10 16 23 22 21 11 25 10 28 -5 2 -9 7 -22 12 -28z
m1396 26 c-1 -22 -17 -28 -17 -7 0 12 9 27 16 27 2 0 2 -9 1 -20z m667 -5 c-4
-8 -12 -11 -22 -7 -16 6 -15 7 1 10 9 2 14 8 11 14 -4 7 -2 8 4 4 6 -4 9 -13
6 -21z m-1460 7 c2 -4 -4 -8 -14 -8 -10 0 -16 4 -14 8 3 4 9 8 14 8 5 0 11 -4
14 -8z m173 2 c-3 -3 -12 -4 -19 -1 -8 3 -5 6 6 6 11 1 17 -2 13 -5z m563 2
c0 -3 -4 -8 -10 -11 -5 -3 -10 -1 -10 4 0 6 5 11 10 11 6 0 10 -2 10 -4z
m-1882 -18 c-3 -7 -11 -13 -18 -13 -7 0 -15 6 -17 13 -3 7 4 12 17 12 13 0 20
-5 18 -12z m1392 8 c0 -2 -7 -7 -16 -10 -8 -3 -12 -2 -9 4 6 10 25 14 25 6z
m460 -6 c0 -5 -5 -10 -11 -10 -5 0 -7 5 -4 10 3 6 8 10 11 10 2 0 4 -4 4 -10z
m-1710 -21 c0 -5 -7 -9 -15 -9 -15 0 -20 12 -9 23 8 8 24 -1 24 -14z m525 1
c3 -5 1 -10 -4 -10 -6 0 -11 5 -11 10 0 6 2 10 4 10 3 0 8 -4 11 -10z m368
-41 c-2 -34 -2 -34 8 -6 6 15 15 27 20 27 6 0 7 -5 3 -12 -4 -7 -3 -8 4 -4 20
12 45 -10 47 -43 2 -20 -1 -30 -9 -28 -6 2 -10 12 -10 21 2 21 -3 20 -16 -4
-9 -17 -5 -26 27 -58 21 -21 51 -47 66 -57 l28 -18 -30 -31 c-17 -18 -31 -35
-31 -38 0 -9 -53 -68 -61 -68 -4 0 -10 10 -14 23 -4 12 -9 27 -11 32 -22 63
-44 170 -43 211 1 28 -1 56 -5 63 -4 6 -2 11 4 11 6 0 8 5 4 11 -4 7 -1 10 7
7 9 -3 13 -18 12 -39z m517 31 c0 -5 -2 -10 -4 -10 -3 0 -8 5 -11 10 -3 6 -1
10 4 10 6 0 11 -4 11 -10z m2015 -51 c-4 -5 -12 -9 -18 -8 -9 0 -8 2 1 6 6 2
9 10 6 15 -4 7 -2 8 5 4 6 -4 9 -12 6 -17z m-1711 -1 c-3 -4 -12 -8 -20 -8 -8
0 -13 4 -10 8 3 5 12 9 20 9 8 0 13 -4 10 -9z m-593 -38 c5 0 9 -7 9 -15 0 -8
5 -15 11 -15 5 0 7 5 4 10 -3 6 -2 10 4 10 5 0 13 -4 16 -10 3 -5 2 -10 -4
-10 -5 0 -16 -6 -23 -13 -11 -11 -17 -8 -36 21 -17 27 -19 33 -7 28 9 -3 21
-6 26 -6z m726 4 c-3 -3 -12 -4 -19 -1 -8 3 -5 6 6 6 11 1 17 -2 13 -5z
m-1646 -27 c-13 -13 -26 -3 -16 12 3 6 11 8 17 5 6 -4 6 -10 -1 -17z m3979 2
c0 -5 -7 -9 -15 -9 -15 0 -20 12 -9 23 8 8 24 -1 24 -14z m-4470 -8 c0 -24
-25 -34 -40 -16 -15 18 -5 35 21 35 12 0 19 -7 19 -19z m1300 3 c0 -8 -4 -12
-10 -9 -5 3 -10 10 -10 16 0 5 5 9 10 9 6 0 10 -7 10 -16z m2935 6 c9 -15 -14
-40 -31 -33 -22 8 -18 43 5 43 11 0 23 -5 26 -10z m-2895 -16 c0 -2 -7 -4 -15
-4 -8 0 -15 4 -15 10 0 5 7 7 15 4 8 -4 15 -8 15 -10z m-1550 -9 c0 -8 -4 -15
-10 -15 -5 0 -10 7 -10 15 0 8 5 15 10 15 6 0 10 -7 10 -15z m4355 -10 c0 -30
-39 -27 -43 3 -3 20 0 23 20 20 15 -2 23 -10 23 -23z m-2503 6 c11 -1 15 -6
12 -16 -4 -8 1 -26 10 -40 9 -13 16 -30 16 -36 0 -7 8 -18 18 -26 9 -7 13 -13
7 -12 -25 3 -28 -2 -7 -17 12 -8 20 -19 17 -24 -3 -5 1 -23 10 -39 8 -16 12
-37 8 -47 -4 -11 -2 -15 7 -12 17 5 21 26 25 116 3 54 0 75 -10 78 -18 7 -12
34 11 47 27 16 40 17 80 5 29 -8 33 -12 23 -24 -6 -7 -9 -23 -6 -34 4 -15 0
-20 -14 -20 -10 0 -19 -4 -19 -10 0 -5 5 -9 12 -7 7 1 13 -5 14 -13 0 -8 2
-23 2 -32 1 -10 5 -17 10 -15 4 1 8 -2 9 -8 0 -5 -3 -9 -8 -8 -11 4 -11 -8 -1
-23 7 -10 51 -14 53 -4 0 3 3 21 5 40 3 19 6 45 7 58 1 12 8 22 16 22 11 0 11
3 1 15 -6 8 -9 23 -5 36 5 14 3 19 -3 15 -6 -3 -13 -2 -16 3 -6 9 42 6 72 -4
6 -2 12 0 12 5 0 6 5 10 11 10 5 0 7 -4 4 -10 -3 -5 -1 -10 4 -10 6 0 11 5 11
11 0 21 33 4 35 -18 1 -17 -2 -20 -11 -13 -8 8 -13 6 -18 -5 -4 -10 -2 -14 5
-9 7 4 6 -2 -1 -17 -16 -30 -23 -188 -9 -205 18 -21 -33 -29 -191 -29 l-145 0
-114 45 c-83 33 -107 46 -89 48 14 2 43 -4 63 -12 47 -20 47 -20 43 6 -4 28
-62 68 -98 68 -15 0 -49 -11 -76 -25 -52 -26 -80 -31 -103 -16 -12 8 -10 14
10 38 51 61 103 113 111 113 6 0 25 15 43 34 31 32 38 34 82 31 26 -2 56 -4
65 -4z m-1052 -42 c0 -11 4 -17 10 -14 6 4 7 -1 3 -10 -7 -19 13 -36 34 -28 7
3 13 11 13 18 0 7 8 12 18 10 9 -1 34 6 55 17 39 20 46 14 22 -18 -21 -28 -18
-43 10 -50 14 -3 22 -10 19 -15 -3 -5 -10 -7 -15 -4 -5 4 -19 -1 -31 -9 -12
-9 -17 -16 -11 -16 7 0 15 5 18 11 4 6 13 8 20 5 7 -2 16 -2 20 2 6 7 10 8 36
11 5 0 7 6 4 12 -4 6 -13 8 -20 5 -8 -3 -19 2 -25 9 -7 8 -16 12 -21 9 -15 -9
-10 8 8 28 16 18 39 26 29 10 -3 -5 1 -9 9 -9 22 0 18 15 -5 22 -20 6 -28 25
-11 25 11 0 41 -28 41 -39 0 -3 14 -15 31 -25 18 -10 28 -24 25 -31 -3 -9 0
-12 9 -9 16 7 78 -49 67 -61 -4 -5 -2 -5 5 -2 6 4 18 1 26 -7 8 -8 18 -12 22
-8 5 4 5 2 2 -4 -3 -6 -34 -12 -69 -13 -72 -2 -81 -8 -80 -51 0 -21 -3 -28
-11 -23 -9 5 -9 3 -1 -8 6 -8 10 -31 7 -52 -2 -25 0 -36 7 -32 12 7 12 -2 0
-30 -8 -19 -9 -19 -9 3 -1 12 -6 22 -12 22 -5 0 -8 4 -5 8 2 4 -4 9 -15 9 -10
1 -19 -3 -19 -8 0 -6 5 -7 10 -4 5 3 10 0 10 -9 0 -8 6 -16 13 -19 9 -3 9 -8
-2 -18 -12 -12 -13 -12 -6 1 5 9 -1 8 -16 -5 -39 -32 -67 -46 -74 -35 -3 6 2
10 12 11 16 0 16 1 -2 9 -17 7 -17 9 -2 9 9 1 17 5 17 11 0 5 -7 7 -15 4 -9
-4 -15 0 -15 8 0 8 7 15 15 15 16 0 28 -24 19 -38 -3 -5 2 -9 11 -9 11 0 15 5
11 16 -3 8 -2 12 4 9 6 -3 10 -1 10 4 0 6 -7 11 -16 11 -9 0 -12 5 -8 13 4 6
4 9 -1 5 -11 -11 -35 11 -29 26 3 7 -2 19 -11 26 -9 7 -15 8 -15 2 0 -6 6 -13
13 -16 9 -5 9 -7 0 -12 -7 -3 -10 -11 -7 -18 4 -10 -2 -12 -23 -8 -15 2 -25 1
-21 -3 4 -4 -2 -16 -14 -26 -11 -11 -16 -19 -10 -19 6 0 14 4 17 10 3 5 14 14
24 20 16 8 19 5 23 -21 4 -23 0 -33 -15 -41 -18 -9 -19 -8 -13 17 6 25 5 26
-9 12 -8 -9 -15 -19 -15 -23 0 -13 50 -53 55 -44 3 4 -1 10 -7 13 -10 3 -10 7
-1 17 8 9 13 7 18 -10 4 -13 12 -19 21 -16 7 3 16 1 19 -5 4 -5 11 -7 16 -4
15 10 10 -12 -7 -29 -17 -18 -28 -21 -19 -6 3 6 -2 10 -11 10 -17 0 -16 1 1
13 17 13 17 14 -3 12 -12 -1 -24 -4 -28 -7 -9 -10 -35 3 -28 13 3 5 -2 9 -10
9 -9 0 -16 5 -16 12 0 6 -3 8 -6 5 -4 -3 -15 -2 -24 3 -13 7 -20 5 -24 -7 -4
-9 -2 -21 4 -27 7 -7 10 -5 10 8 0 10 5 14 11 10 7 -4 6 -11 -5 -22 -14 -15
-17 -14 -29 2 -8 11 -19 16 -25 12 -18 -11 -14 10 3 24 9 7 13 20 10 28 -3 8
-3 24 1 34 6 19 6 19 20 -1 12 -17 18 -18 28 -8 17 15 11 28 -9 20 -8 -3 -15
0 -15 6 0 15 -27 14 -33 -1 -4 -10 -6 -10 -6 0 -1 6 7 20 17 30 13 13 16 25
11 45 -4 16 -3 27 5 30 6 2 -2 2 -19 0 -30 -4 -30 -4 -6 10 23 14 23 14 2 20
-11 3 -19 1 -15 -4 7 -12 -8 -11 -40 1 -17 6 -26 6 -26 0 0 -6 5 -10 10 -10 6
0 10 -5 10 -11 0 -5 -5 -7 -12 -3 -7 4 -8 3 -4 -5 10 -15 -21 -26 -38 -12 -7
6 -17 7 -22 3 -4 -4 -2 1 5 11 12 15 12 20 1 30 -10 9 -11 9 -6 0 5 -9 0 -13
-13 -13 -23 0 -28 -15 -8 -23 8 -3 4 -11 -11 -22 -19 -14 -23 -24 -18 -45 4
-22 1 -27 -12 -26 -9 0 -18 -8 -20 -19 -4 -17 -2 -18 12 -6 9 7 16 9 16 3 0
-5 -8 -13 -17 -16 -15 -6 -15 -9 -3 -16 10 -6 21 -1 36 15 12 13 28 22 35 22
8 -1 14 3 14 8 0 11 -11 11 -40 -1 -19 -8 -19 -7 -3 16 9 14 21 24 27 23 6 -2
10 3 8 10 -1 6 4 11 11 10 6 -2 12 2 12 7 0 6 11 10 25 10 24 0 32 -10 18 -23
-3 -4 -12 -2 -20 4 -20 17 -16 5 9 -22 14 -16 19 -18 15 -7 -3 10 -3 19 1 22
14 8 30 -8 33 -34 2 -14 9 -29 14 -33 6 -5 1 -6 -10 -2 -18 6 -18 4 3 -18 20
-21 21 -25 7 -31 -9 -3 -24 -2 -33 2 -19 10 -56 9 -89 -2 -37 -12 -26 -25 13
-16 19 5 33 6 30 3 -3 -4 -1 -12 5 -20 9 -9 8 -13 0 -13 -6 0 -11 5 -11 10 0
7 -7 7 -21 0 -16 -9 -25 -8 -40 6 -15 13 -19 14 -20 3 0 -9 -2 -10 -5 -2 -3 7
-12 9 -20 6 -13 -5 -13 -7 -2 -14 9 -6 9 -9 1 -9 -7 0 -17 8 -22 18 -8 15 -5
17 17 16 15 -1 33 4 41 9 7 6 20 12 28 13 23 4 25 10 6 25 -9 8 -14 9 -10 2 9
-14 -45 -34 -63 -23 -8 5 -15 21 -18 37 -5 37 -7 38 -27 7 -9 -15 -13 -24 -7
-20 12 7 21 -13 15 -31 -3 -7 -11 -13 -18 -13 -7 0 -15 -7 -19 -15 -3 -8 -11
-15 -18 -14 -10 0 -10 2 1 6 11 4 11 7 0 14 -11 6 -10 11 2 26 19 22 35 56 38
84 0 5 6 7 11 4 6 -3 10 1 10 10 0 8 7 18 15 21 8 4 15 14 16 23 0 10 2 11 6
3 6 -16 23 -6 23 15 0 9 -6 13 -15 9 -13 -4 -14 -2 -5 14 6 11 16 20 23 21 9
0 9 2 0 5 -7 3 -9 12 -6 20 4 11 9 12 19 3 8 -6 11 -16 7 -23 -4 -7 -1 -6 9 1
8 7 19 9 23 5 5 -4 5 -1 1 6 -4 6 -2 12 4 12 6 0 8 11 6 25 -3 15 -1 23 5 20
5 -4 7 -11 4 -16 -4 -5 -2 -9 4 -9 15 0 6 52 -12 61 -14 8 -13 14 6 54 12 25
26 44 30 42 11 -3 7 -23 -4 -19 -5 1 -9 -2 -9 -8 0 -5 11 -9 25 -8 26 2 32 17
15 34 -8 8 -6 15 5 24 13 11 14 10 9 -4 -3 -9 -1 -16 5 -16 10 0 15 14 12 33
-1 5 3 6 9 2 5 -3 10 -15 10 -26z m1180 27 c0 -2 -7 -6 -15 -10 -8 -3 -15 -1
-15 4 0 6 7 10 15 10 8 0 15 -2 15 -4z m2041 -19 c-10 -9 -11 -8 -5 6 3 10 9
15 12 12 3 -3 0 -11 -7 -18z m833 2 c-3 -5 -10 -7 -15 -3 -5 3 -7 10 -3 15 3
5 10 7 15 3 5 -3 7 -10 3 -15z m-4284 -14 c0 -8 -4 -15 -9 -15 -13 0 -22 16
-14 24 11 11 23 6 23 -9z m-162 -33 c2 -7 -3 -12 -12 -12 -9 0 -16 7 -16 16 0
17 22 14 28 -4z m3663 -15 c-10 -9 -11 -8 -5 6 3 10 9 15 12 12 3 -3 0 -11 -7
-18z m-674 -1 c0 -8 -6 -12 -14 -9 -7 3 -10 9 -7 14 8 14 21 11 21 -5z m813
-1 c0 -8 -4 -15 -10 -15 -5 0 -10 7 -10 15 0 8 5 15 10 15 6 0 10 -7 10 -15z
m-3720 -5 c0 -5 -2 -10 -4 -10 -3 0 -8 5 -11 10 -3 6 -1 10 4 10 6 0 11 -4 11
-10z m3607 4 c-3 -4 1 -13 9 -21 16 -16 10 -33 -11 -33 -24 0 -35 32 -17 47
18 13 30 17 19 7z m-919 -20 c-4 -3 -10 -6 -15 -6 -4 0 -14 -4 -21 -10 -7 -6
-16 -8 -19 -4 -4 4 -1 11 7 16 16 10 57 14 48 4z m1094 -19 c0 -5 -5 -11 -11
-13 -6 -2 -11 4 -11 13 0 9 5 15 11 13 6 -2 11 -8 11 -13z m-977 -6 c-3 -4 2
-9 10 -13 8 -3 17 0 21 5 4 7 13 0 23 -15 10 -14 21 -23 24 -20 4 4 2 13 -4
20 -13 16 -4 34 17 34 17 0 17 -1 2 -37 -6 -15 -12 -31 -12 -35 -1 -3 -4 -9
-8 -13 -4 -4 -4 -13 -2 -20 3 -7 -1 -16 -8 -21 -7 -4 -10 -4 -6 1 4 4 3 16 -2
26 -7 12 -6 19 3 23 8 3 7 8 -6 16 -10 6 -14 16 -10 23 5 9 3 9 -8 0 -12 -10
-18 -10 -29 0 -10 9 -11 9 -6 0 5 -9 0 -13 -13 -13 -12 0 -21 -4 -21 -10 0 -5
7 -7 15 -4 8 4 15 1 15 -6 0 -8 -9 -10 -27 -6 -25 6 -26 5 -10 -7 21 -17 21
-23 3 -30 -10 -4 -13 -1 -9 9 3 7 0 14 -6 14 -19 0 -12 21 15 42 14 11 23 26
21 33 -3 6 1 12 9 12 7 0 11 -4 9 -8z m-3275 -14 c0 -8 -9 -15 -20 -15 -11 0
-20 7 -20 15 0 8 9 15 20 15 11 0 20 -7 20 -15z m680 -10 c0 -2 -9 -3 -19 -2
-11 0 -18 5 -15 9 4 6 34 0 34 -7z m1270 -10 c0 -16 -4 -23 -13 -19 -8 3 -14
11 -14 19 0 8 4 12 9 9 4 -3 8 0 8 5 0 6 2 11 5 11 3 0 5 -11 5 -25z m-1402
-2 c-2 -10 -10 -18 -18 -18 -8 0 -16 8 -18 18 -2 12 3 17 18 17 15 0 20 -5 18
-17z m1727 7 c3 -6 -1 -7 -9 -4 -18 7 -21 14 -7 14 6 0 13 -4 16 -10z m948 3
c-7 -2 -21 -2 -30 0 -10 3 -4 5 12 5 17 0 24 -2 18 -5z m-70 -18 c-6 -16 17
-17 28 -2 3 5 9 2 12 -5 6 -17 -31 -22 -51 -6 -10 9 -11 13 0 19 18 12 18 11
11 -6z m-2517 -20 c0 -15 -4 -21 -9 -16 -5 5 -7 17 -4 25 9 23 13 20 13 -9z
m2670 0 c-3 -14 -1 -25 3 -25 4 0 8 -6 8 -13 0 -8 -7 -14 -14 -14 -8 0 -12 6
-9 13 3 8 1 16 -4 19 -9 6 -14 -8 -11 -28 1 -5 -3 -6 -8 -3 -6 4 -6 17 1 36 5
17 14 27 19 24 5 -3 9 0 9 5 0 6 2 11 5 11 3 0 3 -11 1 -25z m-2788 -59 c-2
-13 -10 -21 -23 -21 -23 0 -33 34 -14 45 20 13 40 -1 37 -24z m2687 24 c-3 -5
-12 -10 -18 -10 -7 0 -6 4 3 10 19 12 23 12 15 0z m1548 -14 c3 -8 -1 -20 -9
-27 -12 -10 -18 -9 -31 3 -8 9 -12 21 -9 27 10 16 43 14 49 -3z m-4375 -19 c2
-10 -3 -17 -12 -17 -18 0 -29 16 -21 31 9 14 29 6 33 -14z m3516 -8 c-3 -5
-10 -7 -15 -3 -5 3 -7 10 -3 15 3 5 10 7 15 3 5 -3 7 -10 3 -15z m-3128 -29
c19 0 24 -5 24 -24 0 -13 -8 -30 -17 -37 -10 -7 -15 -9 -11 -5 9 10 -11 38
-21 31 -4 -2 -8 1 -8 8 0 7 -2 17 -3 22 -1 6 -1 17 0 25 2 11 3 11 7 -2 3 -11
14 -18 29 -18z m797 -9 c14 -5 4 -11 -40 -25 -136 -42 -262 -129 -303 -208
l-22 -43 5 87 c7 124 45 180 134 199 41 8 195 1 226 -10z m959 -19 c-109 -73
-214 -179 -258 -261 l-23 -44 -11 29 c-7 16 -15 52 -20 79 -17 103 43 158 220
199 135 32 141 31 92 -2z m-1862 9 c-8 -6 -18 -7 -22 -5 -5 3 -11 -2 -14 -10
-3 -9 -11 -16 -17 -16 -5 0 -2 9 8 20 10 11 28 20 39 20 17 0 18 -2 6 -9z
m4068 -34 c2 -10 -3 -17 -12 -17 -18 0 -29 16 -21 31 9 14 29 6 33 -14z m-358
-18 c0 -10 -7 -19 -15 -19 -15 0 -21 31 -9 43 11 10 24 -3 24 -24z m-1205 -8
c38 -6 42 -10 77 -81 34 -69 40 -99 17 -85 -5 4 -9 1 -9 -5 0 -7 -5 -6 -14 3
-14 13 -43 14 -116 2 -19 -3 -45 -7 -58 -8 -13 -2 -27 -9 -32 -16 -5 -8 -15
-11 -26 -7 -10 4 -21 1 -25 -6 -8 -13 -2 114 7 159 2 12 14 32 26 43 23 21 25
21 153 1z m-3116 -15 c25 -30 -24 -71 -54 -46 -19 16 -19 25 1 44 19 20 38 20
53 2z m1011 -55 c0 -6 -4 -13 -10 -16 -5 -3 -10 1 -10 9 0 9 5 16 10 16 6 0
10 -4 10 -9z m3535 -12 c0 -7 -8 -15 -17 -17 -18 -3 -25 18 -11 32 10 10 28 1
28 -15z m-2523 -6 c18 -21 55 -109 62 -145 2 -14 16 -48 30 -76 14 -28 26 -54
26 -56 0 -3 -12 0 -27 6 -16 6 -65 11 -110 11 -70 0 -87 -4 -126 -26 -52 -31
-62 -58 -40 -104 16 -36 71 -88 109 -105 20 -9 24 -19 26 -60 0 -26 1 -53 2
-60 1 -7 -14 -23 -33 -35 -55 -37 -144 -29 -178 16 -10 14 -12 14 -19 -2 -9
-24 28 -63 73 -78 42 -14 108 -5 149 20 l31 19 70 -34 c81 -39 178 -54 234
-35 42 14 109 72 109 94 0 25 -23 21 -65 -13 -48 -38 -72 -44 -143 -37 -107
10 -182 71 -182 149 0 33 4 38 53 66 56 32 117 93 117 117 0 21 9 19 59 -15
24 -17 49 -30 55 -31 13 -1 29 -4 96 -18 77 -17 188 -13 273 8 95 25 146 51
174 89 18 24 55 120 69 180 2 6 9 12 16 12 9 0 8 -3 -2 -10 -12 -8 -10 -10 10
-11 14 0 36 -3 50 -6 14 -3 42 -6 62 -7 21 0 38 -4 38 -8 0 -3 14 -5 30 -3 17
2 29 1 26 -3 -2 -4 13 -7 34 -7 21 0 36 -3 33 -8 -2 -4 7 -6 21 -3 14 3 28 0
31 -5 4 -5 14 -9 24 -9 9 0 39 -25 66 -56 28 -31 63 -63 78 -71 43 -22 25 -27
-30 -8 -61 22 -231 43 -303 39 -109 -7 -186 -55 -137 -86 22 -14 143 -53 318
-103 108 -30 139 -45 97 -45 -15 0 -29 -4 -32 -8 -3 -4 -30 -21 -61 -37 -31
-15 -59 -34 -62 -41 -3 -9 -28 -11 -97 -7 -78 5 -94 3 -109 -11 -21 -22 -18
-27 38 -64 l45 -30 -25 -16 c-13 -9 -27 -16 -31 -16 -3 0 -27 17 -53 38 -113
94 -343 182 -474 182 -60 0 -38 -13 103 -59 150 -50 275 -111 337 -166 l46
-41 -81 -40 c-45 -22 -79 -44 -75 -49 5 -4 1 -6 -7 -3 -8 3 -37 -4 -65 -14
-27 -11 -86 -31 -130 -45 -44 -14 -89 -30 -100 -36 -11 -6 -26 -12 -33 -13
-50 -9 -49 -35 1 -54 18 -6 41 -17 52 -23 11 -6 45 -18 75 -28 l54 -16 -39
-21 c-65 -32 -234 -82 -319 -94 -122 -16 -319 -6 -387 21 -55 21 -109 60 -109
79 0 5 41 13 90 16 50 4 90 11 90 14 0 4 12 8 28 8 15 1 45 12 66 24 34 21 36
25 20 31 -10 4 -34 8 -52 8 -62 2 -308 61 -337 81 -5 4 -36 17 -68 29 -106 39
-287 142 -287 163 0 5 10 12 23 17 35 14 97 78 97 101 0 15 -7 20 -27 20 -33
0 -96 -16 -138 -35 -60 -26 -69 -25 -103 6 -19 17 -32 32 -30 34 3 3 200 46
301 65 31 6 57 16 57 21 0 21 -213 4 -337 -27 -64 -16 -65 -16 -89 7 -27 25
-31 39 -10 39 20 0 116 41 116 50 0 4 -15 15 -32 24 -33 17 -32 17 62 12 52
-4 136 -11 185 -16 119 -13 127 -12 81 10 l-39 18 29 5 c16 3 47 9 68 12 85
14 143 44 196 102 45 49 100 138 100 160 0 22 44 135 61 157 24 30 40 33 61 9z
m-1331 -24 c22 -31 36 -74 20 -65 -6 4 -11 17 -11 28 0 20 -1 21 -20 3 -11
-10 -20 -13 -20 -7 0 7 4 12 9 12 5 0 7 9 4 20 -3 11 -9 20 -14 20 -5 0 -9 5
-9 11 0 17 22 5 41 -22z m279 -9 c-6 -12 -14 -19 -17 -17 -2 3 1 15 7 27 6 12
14 19 17 17 2 -3 -1 -15 -7 -27z m-907 8 c7 -21 -4 -38 -23 -38 -23 0 -34 16
-26 35 7 18 43 20 49 3z m4232 -13 c0 -13 -8 -21 -22 -23 -17 -3 -23 2 -23 16
0 10 3 22 7 26 13 13 38 1 38 -19z m-3801 -4 c3 -5 -1 -11 -9 -14 -9 -4 -12
-1 -8 9 6 16 10 17 17 5z m-50 -31 c4 0 4 5 0 12 -4 6 3 4 17 -5 27 -20 43
-22 33 -5 -5 8 -2 9 9 5 9 -3 19 -2 22 4 4 5 11 6 17 3 15 -9 -20 -28 -54 -30
-16 -1 -28 4 -28 10 0 6 -7 2 -15 -8 -12 -16 -12 -22 -2 -28 8 -5 4 -8 -11 -8
-20 0 -21 2 -11 22 9 17 9 24 -5 33 -9 7 -16 16 -16 20 0 5 8 1 18 -8 10 -10
22 -17 26 -17z m131 12 c-3 -3 -11 0 -18 7 -9 10 -8 11 6 5 10 -3 15 -9 12
-12z m165 14 c0 -3 -4 -8 -10 -11 -5 -3 -10 -1 -10 4 0 6 5 11 10 11 6 0 10
-2 10 -4z m75 -6 c3 -5 1 -10 -4 -10 -6 0 -11 5 -11 10 0 6 2 10 4 10 3 0 8
-4 11 -10z m33 -25 c-3 -3 -9 2 -12 12 -6 14 -5 15 5 6 7 -7 10 -15 7 -18z
m-207 2 c-6 -8 -7 -18 -3 -22 4 -5 2 -5 -5 -1 -6 3 -14 2 -18 -4 -8 -13 -25
-13 -25 1 0 5 4 8 9 5 4 -3 16 3 26 14 20 22 34 28 16 7z m3874 -7 c0 -8 -10
-16 -22 -18 -22 -3 -32 16 -16 32 12 11 38 2 38 -14z m-3690 -19 c-6 -5 -25
10 -25 20 0 5 6 4 14 -3 8 -7 12 -15 11 -17z m-60 9 c9 7 16 6 25 -5 9 -11 9
-15 1 -15 -7 0 -9 -5 -5 -12 4 -7 3 -8 -5 -4 -6 4 -9 12 -5 17 3 6 -5 8 -20 5
-20 -4 -24 -1 -19 12 5 11 8 12 11 4 3 -9 8 -10 17 -2z m-214 -23 c-10 -9 -11
-8 -5 6 3 10 9 15 12 12 3 -3 0 -11 -7 -18z m349 7 c0 -8 -19 -13 -24 -6 -3 5
1 9 9 9 8 0 15 -2 15 -3z m-920 -14 c0 -5 -4 -10 -10 -10 -5 0 -10 5 -10 10 0
6 5 10 10 10 6 0 10 -4 10 -10z m970 6 c0 -3 -4 -8 -10 -11 -5 -3 -10 -1 -10
4 0 6 5 11 10 11 6 0 10 -2 10 -4z m-110 -32 c0 -8 -6 -14 -14 -14 -8 0 -14 8
-13 19 1 21 27 17 27 -5z m187 12 c0 -8 -6 -12 -15 -9 -11 5 -11 7 0 14 7 5
13 9 14 9 0 0 1 -6 1 -14z m-637 -3 c0 -1 -8 -7 -18 -12 -14 -7 -19 -6 -19 4
0 7 9 13 19 12 10 -1 18 -2 18 -4z m95 -3 c3 -6 -1 -7 -9 -4 -18 7 -21 14 -7
14 6 0 13 -4 16 -10z m61 -16 c-3 -8 1 -14 9 -14 8 0 15 8 16 18 0 11 2 12 6
4 4 -10 9 -9 20 5 13 17 13 16 4 -4 -16 -31 -14 -33 19 -22 16 6 28 15 25 19
-8 13 8 18 30 9 19 -7 19 -8 1 -8 -16 -1 -17 -3 -5 -18 13 -16 12 -17 -3 -4
-16 12 -18 11 -18 -12 0 -21 -4 -25 -17 -20 -11 4 -12 8 -5 11 7 2 12 8 12 14
0 7 -5 6 -14 -1 -15 -13 -16 -28 -2 -50 6 -10 5 -12 -2 -7 -7 4 -12 1 -12 -9
0 -9 4 -14 9 -11 5 4 7 -3 4 -14 -3 -11 -10 -20 -15 -20 -5 0 -7 4 -4 9 3 4
-3 16 -14 26 -11 10 -20 23 -20 28 0 6 -7 18 -15 27 -19 21 -31 75 -15 65 6
-4 9 -13 6 -21z m239 8 c11 -6 14 -12 7 -12 -7 0 -10 -5 -6 -11 4 -7 -7 -1
-25 12 -17 12 -31 23 -31 24 0 6 39 -3 55 -13z m160 -10 c-3 -3 -11 0 -18 7
-9 10 -8 11 6 5 10 -3 15 -9 12 -12z m-75 -24 c0 -12 -3 -18 -7 -14 -10 10
-11 46 -1 40 4 -3 8 -15 8 -26z m-367 -19 c26 2 34 -1 34 -12 0 -8 -6 -14 -14
-14 -7 0 -13 7 -13 15 0 11 -3 12 -14 3 -11 -9 -15 -6 -18 14 -6 30 5 45 12
15 3 -12 8 -21 13 -21z m239 29 c-7 -7 -12 -20 -12 -29 0 -10 -4 -21 -10 -24
-6 -3 -7 1 -4 9 4 9 -1 18 -10 22 -25 9 -19 22 12 27 15 2 29 5 32 6 2 0 -1
-4 -8 -11z m-362 -8 c0 -5 -7 -7 -15 -4 -8 4 -15 8 -15 10 0 2 7 4 15 4 8 0
15 -4 15 -10z m557 -5 c0 -8 -4 -12 -9 -9 -5 3 -6 10 -3 15 9 13 12 11 12 -6z
m2734 -29 c-16 -19 -41 -10 -41 14 0 24 21 31 39 14 11 -10 12 -16 2 -28z
m-3423 23 c-2 -6 -8 -10 -13 -10 -5 0 -11 4 -13 10 -2 6 4 11 13 11 9 0 15 -5
13 -11z m192 -5 c0 -8 -4 -12 -10 -9 -5 3 -10 10 -10 16 0 5 5 9 10 9 6 0 10
-7 10 -16z m334 -14 c-6 -6 -10 -3 -10 10 0 13 4 16 10 10 7 -7 7 -13 0 -20z
m-622 -12 c-9 -9 -15 -9 -24 0 -10 10 -10 15 2 22 20 12 38 -6 22 -22z m318
22 c0 -5 -2 -10 -4 -10 -3 0 -8 5 -11 10 -3 6 -1 10 4 10 6 0 11 -4 11 -10z
m357 -3 c-1 -7 3 -11 9 -10 6 1 11 -4 11 -11 0 -14 -42 -15 -55 -1 -4 4 4 4
18 1 l25 -7 -23 18 c-22 18 -22 19 -3 20 11 1 20 -4 18 -10z m243 3 c0 -5 -5
-10 -11 -10 -5 0 -7 5 -4 10 3 6 8 10 11 10 2 0 4 -4 4 -10z m-642 -18 c2 -7
-3 -12 -12 -12 -9 0 -25 -9 -35 -19 -19 -19 -19 -20 8 -19 16 1 33 -2 40 -6 6
-4 11 -1 11 8 0 9 9 16 20 16 11 0 20 -5 20 -11 0 -5 10 -9 23 -7 17 2 21 -1
19 -16 -3 -17 -1 -18 11 -7 12 9 17 9 23 0 4 -7 3 -9 -4 -5 -6 3 -14 1 -17 -5
-4 -5 -14 -8 -22 -5 -8 3 -25 -6 -39 -21 -30 -32 -59 -41 -44 -13 5 9 6 21 2
25 -4 4 4 4 17 0 18 -5 22 -4 16 5 -5 8 -4 11 2 7 6 -4 18 0 28 7 17 12 17 13
-4 19 -11 3 -24 1 -27 -4 -3 -5 -8 -8 -12 -6 -4 2 -18 -8 -32 -21 -14 -14 -19
-21 -11 -17 9 5 12 4 7 -3 -8 -13 -44 1 -58 22 -6 8 -8 7 -8 -1 0 -6 5 -15 10
-18 13 -8 13 -25 -1 -25 -5 0 -8 4 -5 8 3 5 -4 18 -14 30 -11 12 -20 27 -20
34 0 9 -3 9 -10 -2 -5 -8 -10 -10 -10 -4 0 14 62 59 78 56 7 -2 15 4 18 13 7
17 25 16 32 -3z m4030 -10 c3 -17 -2 -22 -17 -22 -14 0 -21 6 -21 18 0 38 33
41 38 4z m-3988 -2 c0 -5 -4 -10 -9 -10 -6 0 -13 5 -16 10 -3 6 1 10 9 10 9 0
16 -4 16 -10z m92 -28 c-3 -9 -1 -13 5 -9 5 3 10 -1 10 -10 0 -13 -3 -12 -17
4 -8 11 -22 22 -30 26 -12 4 -11 6 3 6 9 1 17 7 17 14 0 8 3 8 9 -2 5 -8 7
-21 3 -29z m123 17 c-3 -4 22 -6 55 -3 55 4 61 3 58 -13 -1 -10 1 -25 5 -33 5
-8 -4 -1 -18 15 -15 17 -24 23 -20 15 6 -12 5 -13 -5 -3 -11 10 -17 10 -29 0
-12 -9 -13 -9 -7 1 4 6 2 12 -4 12 -6 0 -13 -7 -16 -15 -7 -17 -34 -21 -34 -4
0 5 -6 7 -12 3 -10 -6 -10 -5 -1 7 9 12 10 18 1 27 -8 8 -5 9 10 5 12 -3 19
-9 17 -14z m225 15 c0 -8 -19 -13 -24 -6 -3 5 1 9 9 9 8 0 15 -2 15 -3z m27
-21 c1 -22 -1 -24 -8 -10 -6 9 -7 22 -4 27 9 14 10 13 12 -17z m-30 -17 c-9
-22 14 -38 32 -23 14 10 14 10 3 -5 -8 -9 -20 -14 -27 -12 -16 7 -27 32 -19
45 8 14 17 11 11 -5z m3693 -13 c0 -8 -9 -17 -20 -20 -13 -3 -20 -14 -20 -28
0 -13 -7 -25 -15 -29 -32 -12 -61 17 -49 49 6 15 10 17 37 19 6 1 18 9 25 18
14 19 42 13 42 -9z m-4342 4 c8 -10 6 -13 -9 -14 -19 -2 -25 8 -12 20 8 9 9 9
21 -6z m597 3 c-3 -5 1 -10 9 -10 20 0 21 -19 1 -26 -8 -4 -13 -10 -10 -14 3
-5 1 -11 -4 -14 -5 -4 -13 -1 -17 5 -3 6 -1 15 6 19 7 4 9 13 6 19 -7 11 0 31
10 31 3 0 2 -4 -1 -10z m-95 -25 c0 -9 -6 -12 -17 -8 -11 4 -13 8 -5 11 7 2 9
9 6 14 -4 7 -2 8 4 4 7 -4 12 -14 12 -21z m277 8 c-9 -9 -19 -14 -23 -11 -10
10 6 28 24 28 15 0 15 -1 -1 -17z m-1021 -4 c10 -17 -13 -36 -27 -22 -12 12
-4 33 11 33 5 0 12 -5 16 -11z m631 -7 c-12 -2 -16 -9 -13 -19 5 -13 4 -14 -8
-4 -19 16 1 42 24 33 12 -5 12 -7 -3 -10z m24 -15 c-10 -9 -11 -8 -5 6 3 10 9
15 12 12 3 -3 0 -11 -7 -18z m3419 13 c0 -5 -7 -10 -15 -10 -8 0 -15 5 -15 10
0 6 7 10 15 10 8 0 15 -4 15 -10z m-2960 -21 c0 -5 -10 -9 -21 -9 -18 0 -19 2
-9 15 12 15 30 12 30 -6z m-860 -26 c0 -7 -9 -13 -20 -13 -17 0 -18 3 -8 25 8
19 14 22 20 13 4 -7 8 -19 8 -25z m25 8 c-6 -5 -25 10 -25 20 0 5 6 4 14 -3 8
-7 12 -15 11 -17z m209 4 c3 -8 1 -15 -3 -15 -5 0 -11 7 -15 15 -3 8 -1 15 3
15 5 0 11 -7 15 -15z m166 -5 c0 -5 -4 -10 -10 -10 -5 0 -10 5 -10 10 0 6 5
10 10 10 6 0 10 -4 10 -10z m4070 -10 c0 -11 -7 -20 -15 -20 -15 0 -21 21 -8
33 12 13 23 7 23 -13z m-4105 0 c3 -5 1 -10 -4 -10 -6 0 -11 5 -11 10 0 6 2
10 4 10 3 0 8 -4 11 -10z m3715 -26 c0 -8 -5 -14 -12 -14 -6 0 -3 -9 8 -21 19
-21 18 -21 -5 -40 -13 -10 -27 -19 -31 -19 -11 0 -40 29 -40 40 0 12 29 40 41
40 6 0 7 5 3 11 -7 12 15 31 28 23 4 -3 8 -12 8 -20z m-3950 12 c0 -3 -4 -8
-10 -11 -5 -3 -10 -1 -10 4 0 6 5 11 10 11 6 0 10 -2 10 -4z m64 -11 c-4 -8
-11 -12 -16 -9 -6 4 -5 10 3 15 19 12 19 11 13 -6z m236 11 c0 -11 -19 -15
-25 -6 -3 5 1 10 9 10 9 0 16 -2 16 -4z m-166 -35 c-2 -3 -12 3 -22 13 -16 17
-16 18 5 5 12 -7 20 -15 17 -18z m83 4 c0 -8 -4 -12 -9 -9 -5 3 -6 10 -3 15 9
13 12 11 12 -6z m217 -1 c3 -8 2 -12 -4 -9 -6 3 -10 10 -10 16 0 14 7 11 14
-7z m-154 2 c0 -2 -8 -10 -17 -17 -16 -13 -17 -12 -4 4 13 16 21 21 21 13z
m3238 -19 c4 -20 -25 -34 -40 -19 -15 15 -1 44 19 40 10 -2 19 -11 21 -21z
m272 13 c0 -5 -4 -10 -10 -10 -5 0 -10 5 -10 10 0 6 5 10 10 10 6 0 10 -4 10
-10z m-552 -18 c2 -7 -6 -12 -17 -12 -21 0 -27 11 -14 24 9 9 26 2 31 -12z
m-3333 -2 c3 -5 1 -10 -4 -10 -6 0 -11 5 -11 10 0 6 2 10 4 10 3 0 8 -4 11
-10z m90 -18 c-3 -3 -11 0 -18 7 -9 10 -8 11 6 5 10 -3 15 -9 12 -12z m-70
-11 c-3 -2 3 -9 12 -16 9 -7 12 -15 7 -18 -5 -3 -19 5 -30 18 -19 22 -20 23
-3 22 10 -1 16 -3 14 -6z m345 -6 c0 -2 -6 -5 -13 -8 -8 -3 -14 1 -14 8 0 7 6
11 14 8 7 -3 13 -6 13 -8z m-460 1 c0 -2 -7 -6 -15 -10 -8 -3 -15 -1 -15 4 0
6 7 10 15 10 8 0 15 -2 15 -4z m467 -18 l38 3 -24 -21 c-23 -20 -23 -20 -2
-20 24 0 28 -18 7 -26 -9 -3 -12 -12 -8 -22 5 -15 3 -14 -13 1 -10 10 -29 23
-42 28 -22 8 -34 49 -13 49 5 0 7 8 4 18 -5 14 -4 14 5 2 6 -9 23 -14 48 -12z
m-100 -4 c-3 -3 -12 -4 -19 -1 -8 3 -5 6 6 6 11 1 17 -2 13 -5z m-342 -14 c-3
-5 -12 -10 -18 -10 -7 0 -6 4 3 10 19 12 23 12 15 0z m174 -7 c-6 -7 -15 -10
-20 -7 -13 8 -3 21 15 21 12 0 13 -4 5 -14z m3501 -19 c0 -8 -4 -12 -10 -9 -5
3 -10 10 -10 16 0 5 5 9 10 9 6 0 10 -7 10 -16z m301 -17 c-13 -13 -26 -3 -16
12 3 6 11 8 17 5 6 -4 6 -10 -1 -17z m-3823 -7 c-7 -11 -15 -15 -17 -9 -2 6 3
15 10 20 20 12 21 11 7 -11z m212 14 c0 -8 -19 -13 -24 -6 -3 5 1 9 9 9 8 0
15 -2 15 -3z m-710 -50 c0 -8 -7 -14 -15 -14 -15 0 -21 21 -9 33 10 9 24 -2
24 -19z m277 -20 c-3 -3 -12 -4 -19 -1 -8 3 -5 6 6 6 11 1 17 -2 13 -5z m313
-34 c0 -11 -7 -20 -15 -20 -8 0 -15 9 -15 20 0 11 7 20 15 20 8 0 15 -9 15
-20z m-602 -7 c-4 -22 -22 -20 -26 1 -2 10 3 16 13 16 10 0 15 -7 13 -17z
m550 -47 c-4 -25 -43 -34 -51 -12 -8 20 19 47 39 39 8 -3 14 -15 12 -27z m492
9 c0 -8 -6 -15 -14 -15 -17 0 -28 14 -19 24 12 12 33 6 33 -9z m3740 -5 c0
-24 -26 -38 -42 -22 -16 16 -2 42 22 42 13 0 20 -7 20 -20z m-4505 -9 c3 -5 2
-12 -3 -15 -5 -3 -9 1 -9 9 0 17 3 19 12 6z m3445 -6 c10 -12 9 -16 -5 -21
-19 -8 -40 9 -31 25 10 15 21 14 36 -4z m-2990 -9 c0 -8 -4 -17 -9 -21 -12 -7
-24 12 -16 25 9 15 25 12 25 -4z m575 -6 c3 -5 2 -10 -4 -10 -5 0 -13 5 -16
10 -3 6 -2 10 4 10 5 0 13 -4 16 -10z m-185 -20 c0 -5 -8 -10 -17 -10 -15 0
-16 2 -3 10 19 12 20 12 20 0z m2750 -44 c0 -8 -7 -17 -16 -20 -23 -9 -24 -8
-24 14 0 13 7 20 20 20 11 0 20 -6 20 -14z m-3560 -6 c0 -5 -2 -10 -4 -10 -3
0 -8 5 -11 10 -3 6 -1 10 4 10 6 0 11 -4 11 -10z m860 -30 c0 -24 -15 -33 -40
-25 -13 4 -17 12 -13 23 13 35 53 36 53 2z m-420 -11 c0 -20 -24 -26 -35 -9
-8 13 14 42 26 34 5 -3 9 -14 9 -25z m4010 -9 c0 -24 -25 -33 -40 -14 -10 11
-10 17 0 28 15 19 40 10 40 -14z m-4762 -26 c-19 -19 -38 -11 -38 16 0 24 21
31 40 14 12 -12 12 -16 -2 -30z m3772 21 c10 -12 10 -18 0 -29 -14 -18 -40
-10 -40 13 0 32 20 40 40 16z m467 -1 c8 -22 -18 -37 -36 -20 -7 8 -10 19 -7
25 10 16 36 13 43 -5z m-1122 -14 c3 -5 1 -10 -4 -10 -6 0 -11 5 -11 10 0 6 2
10 4 10 3 0 8 -4 11 -10z m1461 -1 c3 -6 1 -16 -5 -22 -9 -9 -14 -8 -21 3 -9
15 -4 30 10 30 5 0 12 -5 16 -11z m-3531 -9 c-3 -5 -13 -10 -21 -10 -8 0 -14
5 -14 10 0 6 9 10 21 10 11 0 17 -4 14 -10z m-709 -21 c12 -19 -8 -50 -29 -47
-22 3 -33 28 -23 53 5 14 42 10 52 -6z m4359 11 c11 -17 -5 -32 -21 -19 -7 6
-11 15 -8 20 7 12 21 11 29 -1z m-3971 -43 c8 -13 7 -20 -4 -27 -8 -5 -19 -10
-23 -10 -12 0 -20 28 -13 46 7 19 25 15 40 -9z m-262 -20 c16 -38 -21 -64 -50
-35 -16 16 -15 23 4 42 19 19 37 17 46 -7z m2788 -22 c0 -5 -5 -3 -10 5 -5 8
-10 20 -10 25 0 6 5 3 10 -5 5 -8 10 -19 10 -25z m-3070 4 c0 -11 -7 -19 -17
-19 -9 0 -13 3 -10 7 4 3 3 11 -3 17 -6 8 -3 12 11 13 13 1 19 -5 19 -18z
m4660 -13 c-13 -13 -35 7 -25 24 5 8 11 8 21 -1 10 -8 12 -15 4 -23z m-247
-13 c13 -8 7 -43 -8 -50 -20 -7 -55 24 -55 49 0 15 5 17 28 12 15 -4 30 -9 35
-11z m-273 -58 c0 -8 -7 -15 -15 -15 -8 0 -15 7 -15 15 0 8 7 15 15 15 8 0 15
-7 15 -15z m350 0 c0 -8 -7 -15 -15 -15 -8 0 -15 7 -15 15 0 8 7 15 15 15 8 0
15 -7 15 -15z m-2946 -23 c2 -4 1 -14 -4 -22 -7 -11 -12 -12 -21 -3 -6 6 -8
16 -5 22 8 13 23 14 30 3z m-1569 -12 c3 -6 -1 -13 -10 -16 -19 -8 -30 0 -20
15 8 14 22 14 30 1z m1231 -21 c20 -23 11 -51 -20 -57 -39 -8 -63 47 -28 67
24 14 26 14 48 -10z m-571 -30 c0 -28 -23 -32 -39 -6 -8 14 -8 20 4 27 22 14
35 6 35 -21z m335 16 c0 -8 -4 -15 -10 -15 -5 0 -10 7 -10 15 0 8 5 15 10 15
6 0 10 -7 10 -15z m2883 1 c3 -8 -1 -20 -9 -27 -12 -10 -18 -9 -31 3 -8 9 -12
21 -9 27 10 16 43 14 49 -3z m-2723 -22 c11 -12 11 -18 -2 -31 -19 -18 -38
-10 -38 16 0 33 20 40 40 15z m-590 -24 c0 -10 -6 -20 -12 -23 -21 -7 -38 4
-38 23 0 10 6 20 13 23 20 7 37 -4 37 -23z m3600 -10 c0 -11 -6 -20 -14 -20
-18 0 -29 16 -21 30 11 18 35 11 35 -10z m-4090 -5 c0 -17 -2 -18 -25 -9 -13
5 -14 8 -3 15 19 13 28 11 28 -6z m230 5 c0 -5 -4 -10 -10 -10 -5 0 -10 5 -10
10 0 6 5 10 10 10 6 0 10 -4 10 -10z m1118 -38 c3 -16 -2 -22 -16 -22 -24 0
-35 23 -19 39 16 16 31 8 35 -17z m2082 -48 c0 -9 -7 -14 -17 -12 -25 5 -28
28 -4 28 12 0 21 -6 21 -16z m906 -23 c-4 -6 -16 -11 -27 -11 -21 0 -27 35 -6
43 16 6 41 -18 33 -32z m-4246 8 c0 -5 -7 -9 -15 -9 -15 0 -20 12 -9 23 8 8
24 -1 24 -14z m868 0 c-2 -6 -8 -10 -13 -10 -5 0 -11 4 -13 10 -2 6 4 11 13
11 9 0 15 -5 13 -11z m-208 -19 c0 -5 -7 -10 -15 -10 -8 0 -15 5 -15 10 0 6 7
10 15 10 8 0 15 -4 15 -10z m2705 -70 c-5 -8 -11 -8 -17 -2 -6 6 -7 16 -3 22
5 8 11 8 17 2 6 -6 7 -16 3 -22z m-3025 -65 c0 -21 -30 -31 -40 -14 -11 17 -3
29 21 29 10 0 19 -7 19 -15z m3925 5 c-3 -5 -10 -10 -16 -10 -5 0 -9 5 -9 10
0 6 7 10 16 10 8 0 12 -4 9 -10z m-4065 -21 c0 -5 -7 -9 -15 -9 -15 0 -20 12
-9 23 8 8 24 -1 24 -14z m-403 -27 c2 -38 -18 -43 -36 -8 -15 28 -7 49 17 44
11 -2 18 -14 19 -36z m4231 15 c4 -21 -27 -35 -38 -17 -12 19 0 42 19 38 9 -2
17 -11 19 -21z m-2928 -2 c0 -8 -7 -15 -15 -15 -8 0 -15 7 -15 15 0 8 7 15 15
15 8 0 15 -7 15 -15z m-732 -41 c4 -29 -28 -41 -45 -18 -10 13 -10 21 -1 31
16 19 42 12 46 -13z m-660 -13 c3 -20 1 -21 -17 -12 -12 7 -18 17 -14 27 8 21
27 12 31 -15z m400 -5 c-2 -13 -10 -21 -23 -21 -23 0 -33 34 -14 45 20 13 40
-1 37 -24z m4238 13 c8 -14 -21 -43 -35 -35 -19 12 -13 46 8 46 11 0 23 -5 27
-11z m-3686 -24 c0 -8 -9 -15 -20 -15 -22 0 -27 15 -7 23 21 9 27 7 27 -8z
m610 -16 c0 -14 -7 -19 -25 -19 -18 0 -25 5 -25 19 0 11 6 21 13 24 20 7 37
-4 37 -24z m2423 16 c1 -5 -6 -11 -15 -13 -11 -2 -18 3 -18 13 0 17 30 18 33
0z m-3928 -25 c0 -8 -8 -16 -17 -18 -13 -2 -18 3 -18 18 0 15 5 20 18 18 9 -2
17 -10 17 -18z m995 10 c0 -5 -4 -10 -9 -10 -6 0 -13 5 -16 10 -3 6 1 10 9 10
9 0 16 -4 16 -10z m440 -10 c0 -5 -7 -10 -15 -10 -8 0 -15 5 -15 10 0 6 7 10
15 10 8 0 15 -4 15 -10z m2020 -25 c15 -18 5 -35 -21 -35 -12 0 -19 7 -19 18
0 33 20 42 40 17z m-2893 -21 c-9 -9 -28 6 -21 18 4 6 10 6 17 -1 6 -6 8 -13
4 -17z m-327 -4 c0 -5 -7 -10 -15 -10 -8 0 -15 5 -15 10 0 6 7 10 15 10 8 0
15 -4 15 -10z m178 -12 c-6 -18 -28 -21 -28 -4 0 9 7 16 16 16 9 0 14 -5 12
-12z m4328 1 c10 -17 -13 -36 -27 -22 -12 12 -4 33 11 33 5 0 12 -5 16 -11z
m-1666 -3 c0 -2 -34 -46 -75 -97 -49 -62 -75 -103 -75 -120 0 -36 8 -40 44
-25 31 13 219 139 245 164 16 15 19 12 89 -77 l43 -54 -33 -35 c-18 -19 -75
-76 -125 -126 -71 -70 -93 -98 -93 -118 0 -15 4 -29 8 -32 28 -17 216 54 309
116 23 15 46 28 51 28 5 0 28 -27 51 -59 l41 -60 -44 -43 c-46 -44 -148 -110
-290 -189 -44 -24 -98 -61 -120 -81 -35 -34 -45 -38 -93 -38 l-53 0 7 43 c12
67 10 304 -3 317 -9 9 -14 4 -22 -19 l-11 -31 -84 0 c-153 0 -323 -43 -388
-98 -36 -30 -36 -37 -1 -51 34 -14 87 -19 290 -27 l163 -7 -7 -56 c-3 -31 -10
-60 -15 -65 -5 -5 -33 -4 -69 4 -83 18 -235 18 -285 0 -34 -11 -192 -16 -202
-6 -2 2 4 43 13 92 26 144 29 177 15 173 -16 -6 -67 -137 -83 -211 l-12 -58
-258 0 c-198 0 -259 3 -262 12 -17 64 -29 171 -33 316 -7 192 -18 216 -43 89
l-16 -77 -52 36 c-29 20 -52 42 -52 48 0 19 28 177 44 255 15 71 26 101 26 70
0 -21 106 -191 177 -285 34 -45 100 -121 146 -169 72 -75 87 -86 107 -80 24 8
66 34 199 125 41 28 81 48 88 46 16 -6 573 340 664 412 58 46 79 59 79 48z
m-1670 -36 c0 -11 -4 -20 -9 -20 -14 0 -23 18 -16 30 10 17 25 11 25 -10z m70
-18 c0 -13 -12 -22 -22 -16 -10 6 -1 24 13 24 5 0 9 -4 9 -8z m-1200 -37 c0
-8 -4 -15 -10 -15 -5 0 -10 7 -10 15 0 8 5 15 10 15 6 0 10 -7 10 -15z m4460
-15 c0 -21 -24 -28 -35 -10 -8 14 3 30 21 30 8 0 14 -9 14 -20z m-3305 -15 c0
-13 -8 -21 -22 -23 -24 -3 -28 4 -17 33 9 22 39 14 39 -10z m2361 -6 c10 -17
-23 -46 -37 -32 -7 7 -9 19 -6 27 7 18 33 21 43 5z m-3296 -19 c0 -5 -2 -10
-4 -10 -3 0 -8 5 -11 10 -3 6 -1 10 4 10 6 0 11 -4 11 -10z m4045 -20 c0 -8
-8 -16 -17 -18 -13 -2 -18 3 -18 18 0 15 5 20 18 18 9 -2 17 -10 17 -18z
m-3320 -11 c11 -16 -3 -56 -21 -63 -34 -13 -59 35 -32 62 15 15 45 16 53 1z
m-241 -20 c-3 -5 -10 -7 -15 -3 -5 3 -7 10 -3 15 3 5 10 7 15 3 5 -3 7 -10 3
-15z m380 0 c-3 -5 -10 -7 -15 -3 -5 3 -7 10 -3 15 3 5 10 7 15 3 5 -3 7 -10
3 -15z m2606 7 c0 -8 -5 -18 -11 -22 -14 -8 -33 11 -25 25 10 16 36 13 36 -3z
m-3930 -11 c15 -19 -3 -45 -31 -45 -19 0 -35 33 -24 50 9 15 41 12 55 -5z
m3640 -31 c0 -16 -16 -19 -25 -4 -8 13 4 32 16 25 5 -4 9 -13 9 -21z m-3442 5
c-2 -6 -8 -10 -13 -10 -5 0 -11 4 -13 10 -2 6 4 11 13 11 9 0 15 -5 13 -11z
m530 -52 c4 -20 -25 -34 -40 -19 -15 15 -1 44 19 40 10 -2 19 -11 21 -21z
m3030 -14 c-4 -22 -22 -20 -26 1 -2 10 3 16 13 16 10 0 15 -7 13 -17z m-2916
-18 c0 -5 -5 -11 -11 -13 -6 -2 -11 4 -11 13 0 9 5 15 11 13 6 -2 11 -8 11
-13z m3233 -15 c0 -7 -6 -15 -12 -17 -8 -3 -13 4 -13 17 0 13 5 20 13 18 6 -3
12 -11 12 -18z m475 0 c0 -5 -4 -10 -10 -10 -5 0 -10 5 -10 10 0 6 5 10 10 10
6 0 10 -4 10 -10z m-4434 -47 c-10 -10 -19 5 -10 18 6 11 8 11 12 0 2 -7 1
-15 -2 -18z m612 -1 c3 -18 -1 -22 -22 -22 -19 0 -26 5 -26 18 0 39 43 43 48
4z m-273 9 c7 -12 -12 -24 -25 -16 -11 7 -4 25 10 25 5 0 11 -4 15 -9z m-91
-37 c24 -9 21 -61 -4 -69 -39 -12 -66 35 -38 63 14 14 20 14 42 6z m730 -23
c3 -5 -1 -14 -8 -20 -16 -13 -32 2 -21 19 8 12 22 13 29 1z m3183 -2 c14 -14
6 -39 -12 -39 -18 0 -28 17 -21 35 6 18 18 19 33 4z m259 -17 c-8 -9 -19 -13
-22 -9 -10 9 16 38 28 31 6 -4 4 -13 -6 -22z m-581 -10 c0 -18 -20 -15 -23 4
-3 10 1 15 10 12 7 -3 13 -10 13 -16z m143 -29 c-2 -10 -10 -18 -18 -18 -8 0
-16 8 -18 18 -2 12 3 17 18 17 15 0 20 -5 18 -17z m-4040 -31 c3 -16 -2 -22
-17 -22 -24 0 -35 15 -27 36 9 23 40 13 44 -14z m789 2 c-9 -9 -28 6 -21 18 4
6 10 6 17 -1 6 -6 8 -13 4 -17z m581 14 c-6 -18 -28 -21 -28 -4 0 9 7 16 16
16 9 0 14 -5 12 -12z m2866 -4 c8 -21 -1 -34 -24 -34 -22 0 -33 23 -17 39 16
16 34 14 41 -5z m66 -9 c0 -8 -4 -15 -10 -15 -5 0 -10 7 -10 15 0 8 5 15 10
15 6 0 10 -7 10 -15z m-4480 -5 c0 -5 -4 -10 -10 -10 -5 0 -10 5 -10 10 0 6 5
10 10 10 6 0 10 -4 10 -10z m945 -26 c15 -11 17 -18 9 -32 -20 -31 -73 -25
-74 10 0 9 29 38 38 38 4 0 16 -7 27 -16z m3605 -14 c0 -5 -4 -10 -10 -10 -5
0 -10 5 -10 10 0 6 5 10 10 10 6 0 10 -4 10 -10z m-4490 -31 c0 -11 -4 -17
-10 -14 -5 3 -10 13 -10 21 0 8 5 14 10 14 6 0 10 -9 10 -21z m671 -22 c-1
-12 -15 -9 -19 4 -3 6 1 10 8 8 6 -3 11 -8 11 -12z m945 -14 l53 -18 7 -73 c3
-40 5 -74 3 -76 -2 -2 -32 12 -66 31 l-63 35 0 59 c0 32 3 59 7 59 3 0 30 -8
59 -17z m2664 7 c0 -5 -4 -10 -10 -10 -5 0 -10 5 -10 10 0 6 5 10 10 10 6 0
10 -4 10 -10z m-3370 -20 c0 -5 -4 -10 -10 -10 -5 0 -10 5 -10 10 0 6 5 10 10
10 6 0 10 -4 10 -10z m426 -1 c10 -17 -13 -36 -27 -22 -12 12 -4 33 11 33 5 0
12 -5 16 -11z m2584 -9 c0 -24 -26 -38 -42 -22 -16 16 -2 42 22 42 13 0 20 -7
20 -20z m-3847 -21 c-17 -17 -37 -1 -22 17 8 10 15 12 23 4 7 -7 7 -13 -1 -21z
m4282 21 c3 -5 -1 -10 -9 -10 -9 0 -16 5 -16 10 0 6 4 10 9 10 6 0 13 -4 16
-10z m145 1 c0 -6 -4 -13 -10 -16 -5 -3 -10 1 -10 9 0 9 5 16 10 16 6 0 10 -4
10 -9z m-3222 -39 c3 -17 -2 -22 -17 -22 -14 0 -21 6 -21 18 0 38 33 41 38 4z
m3322 3 c0 -8 -4 -15 -10 -15 -5 0 -10 7 -10 15 0 8 5 15 10 15 6 0 10 -7 10
-15z m-4400 -15 c0 -5 -4 -10 -10 -10 -5 0 -10 5 -10 10 0 6 5 10 10 10 6 0
10 -4 10 -10z m373 -14 c9 -22 -19 -42 -37 -26 -19 15 -10 40 14 40 10 0 20
-6 23 -14z m71 -7 c-3 -5 -10 -7 -15 -3 -5 3 -7 10 -3 15 3 5 10 7 15 3 5 -3
7 -10 3 -15z m3038 -35 c32 -88 30 -92 -59 -96 -43 -2 -125 -1 -182 2 l-105 5
85 33 c46 18 116 50 154 72 39 21 74 38 80 36 5 -1 18 -25 27 -52z m1131 44
c47 -22 34 -39 -25 -32 -29 3 -56 8 -61 11 -12 7 4 25 19 19 7 -3 16 -1 19 4
8 13 16 13 48 -2z m-4530 -53 c-1 -11 4 -23 10 -27 6 -4 8 -11 3 -15 -5 -4
-11 -2 -13 5 -3 6 -13 12 -23 12 -20 0 -30 17 -22 38 8 21 47 10 45 -13z
m4235 2 c4 -20 -25 -34 -40 -19 -15 15 -1 44 19 40 10 -2 19 -11 21 -21z
m-4492 -8 c10 -17 -13 -36 -27 -22 -12 12 -4 33 11 33 5 0 12 -5 16 -11z
m1184 -59 c0 -5 -4 -10 -10 -10 -5 0 -10 5 -10 10 0 6 5 10 10 10 6 0 10 -4
10 -10z m3630 -30 c0 -21 -24 -28 -35 -10 -8 14 3 30 21 30 8 0 14 -9 14 -20z
m-4500 0 c0 -5 -4 -10 -10 -10 -5 0 -10 5 -10 10 0 6 5 10 10 10 6 0 10 -4 10
-10z m1210 -20 c0 -5 -4 -10 -10 -10 -5 0 -10 5 -10 10 0 6 5 10 10 10 6 0 10
-4 10 -10z m524 -11 c-3 -5 -10 -7 -15 -3 -5 3 -7 10 -3 15 3 5 10 7 15 3 5
-3 7 -10 3 -15z m-1897 -15 c-9 -9 -28 6 -21 18 4 6 10 6 17 -1 6 -6 8 -13 4
-17z m775 -6 c-9 -9 -15 -9 -24 0 -10 10 -10 15 2 22 20 12 38 -6 22 -22z
m716 0 c30 -30 0 -78 -37 -58 -32 17 -21 70 14 70 6 0 16 -5 23 -12z m516 -9
c-3 -5 -10 -7 -15 -3 -5 3 -7 10 -3 15 3 5 10 7 15 3 5 -3 7 -10 3 -15z m166
11 c0 -5 -7 -10 -15 -10 -8 0 -15 5 -15 10 0 6 7 10 15 10 8 0 15 -4 15 -10z
m350 -5 c0 -8 -7 -15 -15 -15 -16 0 -20 12 -8 23 11 12 23 8 23 -8z m910 5 c0
-5 -4 -10 -10 -10 -5 0 -10 5 -10 10 0 6 5 10 10 10 6 0 10 -4 10 -10z m-2120
-20 c0 -5 -4 -10 -10 -10 -5 0 -10 5 -10 10 0 6 5 10 10 10 6 0 10 -4 10 -10z
m2344 -6 c7 -19 -1 -34 -19 -34 -18 0 -28 17 -21 35 7 20 32 19 40 -1z m-1754
-24 c0 -5 -4 -10 -10 -10 -5 0 -10 5 -10 10 0 6 5 10 10 10 6 0 10 -4 10 -10z
m777 -1 c16 -16 5 -39 -17 -39 -20 0 -30 17 -22 38 5 15 24 16 39 1z m353 -8
c0 -26 -17 -36 -35 -21 -18 15 -8 40 16 40 12 0 19 -7 19 -19z m-1650 -1 c0
-5 -4 -10 -10 -10 -5 0 -10 5 -10 10 0 6 5 10 10 10 6 0 10 -4 10 -10z m-1419
-13 c-1 -12 -15 -9 -19 4 -3 6 1 10 8 8 6 -3 11 -8 11 -12z m2039 -8 c0 -5 -4
-9 -10 -9 -5 0 -10 7 -10 16 0 8 5 12 10 9 6 -3 10 -10 10 -16z"/>
<path d="M3121 3856 c-8 -10 -8 -16 3 -25 11 -9 15 -6 18 14 6 28 -3 32 -21
11z"/>
<path d="M2140 3754 c0 -8 5 -12 10 -9 6 4 8 11 5 16 -9 14 -15 11 -15 -7z"/>
<path d="M2697 3745 c-4 -8 -3 -16 1 -19 4 -3 9 4 9 15 2 23 -3 25 -10 4z"/>
<path d="M2536 3681 c-4 -5 -3 -16 0 -25 5 -12 10 -14 20 -6 7 7 10 18 7 26
-6 16 -19 18 -27 5z"/>
<path d="M3696 3653 c-11 -11 -6 -23 9 -23 8 0 15 4 15 9 0 13 -16 22 -24 14z"/>
<path d="M3485 3540 c-3 -5 -2 -10 4 -10 5 0 13 5 16 10 3 6 2 10 -4 10 -5 0
-13 -4 -16 -10z"/>
<path d="M3087 3193 c-10 -9 -9 -23 1 -23 5 0 9 7 9 15 0 17 -1 18 -10 8z"/>
<path d="M3041 3161 c-9 -6 -10 -11 -2 -15 6 -4 9 -11 7 -15 -3 -4 1 -8 9 -8
8 0 16 6 19 13 3 9 -1 11 -12 7 -15 -6 -15 -5 -3 10 14 18 5 22 -18 8z"/>
<path d="M3166 3157 c3 -10 9 -15 12 -12 3 3 0 11 -7 18 -10 9 -11 8 -5 -6z"/>
<path d="M2998 3138 c-19 -19 -13 -24 11 -9 7 5 12 13 10 18 -2 5 -12 1 -21
-9z"/>
<path d="M3503 3145 c0 -8 4 -12 9 -9 5 3 6 10 3 15 -9 13 -12 11 -12 -6z"/>
<path d="M3438 3138 c0 -7 -2 -19 -2 -27 -1 -8 -10 -18 -21 -22 -14 -5 -15 -8
-4 -8 8 -1 20 4 27 11 9 9 13 7 18 -5 3 -9 10 -14 15 -12 4 3 0 14 -11 25 -11
11 -17 26 -14 35 4 8 3 15 0 15 -3 0 -7 -6 -8 -12z"/>
<path d="M3471 3137 c-6 -8 -8 -17 -4 -20 11 -12 19 -7 20 13 2 24 -1 25 -16
7z"/>
<path d="M3081 3114 c0 -11 3 -14 6 -6 3 7 2 16 -1 19 -3 4 -6 -2 -5 -13z"/>
<path d="M2851 3113 c0 -4 4 -17 9 -28 8 -19 9 -19 9 2 1 12 -3 25 -9 28 -5 3
-10 3 -9 -2z"/>
<path d="M3105 3110 c-3 -5 -1 -10 4 -10 6 0 11 5 11 10 0 6 -2 10 -4 10 -3 0
-8 -4 -11 -10z"/>
<path d="M2976 3102 c-3 -5 1 -9 9 -9 8 0 12 4 9 9 -3 4 -7 8 -9 8 -2 0 -6 -4
-9 -8z"/>
<path d="M3011 3094 c0 -11 3 -14 6 -6 3 7 2 16 -1 19 -3 4 -6 -2 -5 -13z"/>
<path d="M2634 3070 c0 -13 4 -16 10 -10 7 7 7 13 0 20 -6 6 -10 3 -10 -10z"/>
<path d="M2709 3063 c0 -5 -2 -15 -4 -24 -2 -12 2 -15 16 -12 11 3 21 9 24 13
3 5 -4 6 -15 3 -16 -4 -19 -2 -14 11 3 9 3 16 0 16 -3 0 -6 -3 -7 -7z"/>
<path d="M2796 3061 c-4 -6 -4 -10 1 -9 4 1 23 -12 42 -30 19 -18 36 -30 40
-27 3 3 1 9 -4 13 -6 4 -10 13 -10 21 0 8 -6 15 -13 17 -7 1 -8 0 -2 -3 5 -2
7 -9 4 -15 -4 -6 -16 2 -29 18 -15 19 -24 24 -29 15z"/>
<path d="M3385 3061 c-3 -5 -1 -12 5 -16 5 -3 10 1 10 9 0 18 -6 21 -15 7z"/>
<path d="M3360 3054 c0 -12 20 -42 20 -30 0 5 7 3 15 -4 12 -10 15 -10 16 1 0
8 4 5 8 -5 7 -19 8 -19 14 3 5 20 3 22 -16 17 -12 -3 -29 1 -39 11 -10 9 -18
12 -18 7z"/>
<path d="M2546 3042 c-3 -5 1 -9 9 -9 8 0 12 4 9 9 -3 4 -7 8 -9 8 -2 0 -6 -4
-9 -8z"/>
<path d="M3026 3037 c3 -10 9 -15 12 -12 3 3 0 11 -7 18 -10 9 -11 8 -5 -6z"/>
<path d="M2480 3036 c0 -2 7 -7 16 -10 8 -3 12 -2 9 4 -6 10 -25 14 -25 6z"/>
<path d="M2946 3025 c-11 -8 -15 -15 -10 -15 6 0 15 5 20 10 13 13 46 2 37
-13 -3 -6 -1 -7 5 -3 7 4 12 2 12 -4 0 -7 -12 -9 -30 -6 -16 2 -33 -1 -36 -6
-4 -7 -2 -8 5 -4 8 6 10 0 5 -18 -5 -20 -2 -26 9 -26 20 0 31 16 17 25 -18 11
-11 23 10 18 11 -3 17 -9 14 -14 -9 -15 26 -23 39 -9 9 10 9 11 0 6 -14 -8
-22 4 -25 36 -1 14 -7 25 -13 25 -5 0 -17 3 -25 7 -8 3 -24 -1 -34 -9z"/>
<path d="M3056 3019 c3 -5 15 -9 27 -9 18 0 19 -2 7 -11 -10 -7 -11 -9 -2 -7
21 6 14 22 -13 30 -14 3 -23 2 -19 -3z"/>
<path d="M2760 3012 c-16 -5 -30 -22 -30 -36 0 -6 7 -1 15 10 8 10 15 15 15 9
0 -5 5 -3 10 5 8 13 10 13 10 -2 0 -9 -6 -19 -12 -21 -7 -3 -3 -6 10 -6 12 -1
22 5 22 13 0 19 -22 34 -40 28z"/>
<path d="M2806 2998 c8 -29 10 -31 23 -23 16 9 13 25 -5 25 -8 0 -12 5 -9 10
3 6 1 10 -5 10 -7 0 -9 -8 -4 -22z"/>
<path d="M2464 2988 c-10 -12 -13 -18 -5 -13 11 6 13 4 8 -9 -4 -11 -3 -15 4
-11 6 4 8 13 5 20 -2 7 1 18 7 24 6 6 9 11 6 11 -3 0 -14 -10 -25 -22z"/>
<path d="M2686 2995 c4 -8 14 -15 23 -14 10 0 11 2 3 6 -6 2 -10 9 -6 14 3 5
-2 9 -10 9 -10 0 -13 -6 -10 -15z"/>
<path d="M2903 2993 c-7 -3 -13 -9 -13 -14 0 -6 6 -7 13 -3 7 5 6 0 -3 -11 -9
-11 -10 -16 -2 -11 6 4 12 3 12 -3 0 -6 7 -8 16 -4 11 4 12 8 4 13 -7 4 -10
12 -6 18 8 13 -4 21 -21 15z"/>
<path d="M2540 2976 c0 -2 7 -7 16 -10 8 -3 12 -2 9 4 -6 10 -25 14 -25 6z"/>
<path d="M2665 2970 c3 -5 8 -10 11 -10 2 0 4 5 4 10 0 6 -5 10 -11 10 -5 0
-7 -4 -4 -10z"/>
<path d="M2850 2976 c0 -2 7 -6 15 -10 8 -3 15 -1 15 4 0 6 -7 10 -15 10 -8 0
-15 -2 -15 -4z"/>
<path d="M3070 2976 c0 -2 7 -6 15 -10 8 -3 15 -1 15 4 0 6 -7 10 -15 10 -8 0
-15 -2 -15 -4z"/>
<path d="M3070 2950 c17 -11 20 -32 5 -42 -5 -4 0 -8 12 -8 12 0 25 5 28 10 4
6 3 10 -2 9 -20 -3 -27 2 -13 11 13 9 13 11 0 20 -8 5 -22 10 -30 10 -13 0
-13 -1 0 -10z"/>
<path d="M3006 2918 c3 -4 9 -8 15 -8 5 0 9 4 9 8 0 5 -7 9 -15 9 -8 0 -12 -4
-9 -9z"/>
<path d="M3205 3360 c3 -5 8 -10 11 -10 2 0 4 5 4 10 0 6 -5 10 -11 10 -5 0
-7 -4 -4 -10z"/>
<path d="M1875 3100 c-3 -5 -1 -10 4 -10 6 0 11 5 11 10 0 6 -2 10 -4 10 -3 0
-8 -4 -11 -10z"/>
<path d="M1840 3059 c-40 -21 -37 -24 9 -8 17 6 31 15 31 20 0 5 -1 9 -2 8 -2
-1 -19 -9 -38 -20z"/>
<path d="M2104 3072 c3 -6 -2 -13 -11 -15 -16 -4 -16 -5 -1 -6 21 -1 32 15 17
25 -7 4 -9 3 -5 -4z"/>
<path d="M2140 3070 c-9 -6 -10 -10 -3 -10 6 0 15 5 18 10 8 12 4 12 -15 0z"/>
<path d="M2283 3055 c0 -7 8 -10 19 -7 10 2 18 6 18 7 0 1 -8 5 -18 7 -11 3
-19 0 -19 -7z"/>
<path d="M2130 3035 c-14 -16 -3 -20 19 -6 8 5 9 11 3 15 -5 3 -15 -1 -22 -9z"/>
<path d="M1971 3024 c0 -11 3 -14 6 -6 3 7 2 16 -1 19 -3 4 -6 -2 -5 -13z"/>
<path d="M1900 3009 c0 -5 5 -7 10 -4 6 3 10 8 10 11 0 2 -4 4 -10 4 -5 0 -10
-5 -10 -11z"/>
<path d="M2320 2999 c0 -5 5 -7 10 -4 6 3 10 8 10 11 0 2 -4 4 -10 4 -5 0 -10
-5 -10 -11z"/>
<path d="M2266 2981 c-4 -5 3 -7 14 -4 23 6 26 13 6 13 -8 0 -17 -4 -20 -9z"/>
<path d="M2200 2869 c0 -6 -4 -8 -8 -5 -5 3 -9 -1 -9 -9 0 -8 5 -11 10 -8 6 4
8 0 4 -10 -10 -27 9 -28 22 -1 14 31 14 31 -4 38 -8 3 -15 1 -15 -5z"/>
<path d="M870 3036 c0 -8 6 -17 13 -20 8 -4 7 -5 -3 -5 -29 2 -40 -1 -40 -12
0 -8 5 -8 15 1 15 12 20 4 16 -22 0 -4 6 -5 14 -2 18 7 20 -17 3 -35 -10 -11
-10 -14 0 -18 6 -3 12 -12 12 -21 0 -13 3 -12 15 4 8 10 15 27 15 36 0 9 6 19
13 21 9 4 9 6 0 6 -7 1 -10 8 -7 16 4 8 9 13 13 11 4 -3 13 5 20 16 12 19 12
20 -10 5 -25 -18 -59 -7 -59 18 0 8 -7 15 -15 15 -8 0 -15 -6 -15 -14z m57
-57 c-1 -10 -5 -19 -10 -19 -5 0 -7 7 -3 15 3 8 2 14 -2 14 -16 -3 -23 2 -17
11 9 15 34 0 32 -21z m-7 -39 c0 -5 -7 -10 -16 -10 -8 0 -12 5 -9 10 3 6 10
10 16 10 5 0 9 -4 9 -10z"/>
<path d="M1018 3043 c-19 -5 -64 -71 -54 -80 3 -4 6 0 6 7 0 9 5 7 15 -6 15
-18 15 -18 8 0 -4 11 -2 17 3 13 6 -3 16 -2 24 4 12 7 10 9 -8 9 -15 0 -22 5
-19 13 2 6 11 11 18 9 8 -2 11 0 7 4 -4 4 0 13 10 20 18 14 17 14 -10 7z"/>
<path d="M1136 3013 c-6 -14 -5 -15 5 -6 7 7 10 15 7 18 -3 3 -9 -2 -12 -12z"/>
<path d="M803 3003 c-7 -3 -13 -8 -13 -13 0 -10 24 -7 28 4 5 11 -1 14 -15 9z"/>
<path d="M1148 2980 c18 -20 15 -28 -10 -25 -13 1 -15 0 -5 -2 9 -2 22 -13 27
-24 6 -10 15 -19 21 -19 6 0 4 7 -5 15 -8 9 -13 21 -10 29 3 7 -3 19 -13 26
-15 12 -16 12 -5 0z"/>
<path d="M843 2969 c9 -6 15 -14 12 -20 -7 -10 8 -13 18 -2 7 7 -22 32 -38 32
-5 0 -2 -4 8 -10z"/>
<path d="M826 2945 c-9 -26 -7 -32 5 -12 6 10 9 21 6 23 -2 3 -7 -2 -11 -11z"/>
<path d="M940 2940 c0 -5 5 -10 11 -10 5 0 7 5 4 10 -3 6 -8 10 -11 10 -2 0
-4 -4 -4 -10z"/>
<path d="M976 2937 c3 -10 9 -15 12 -12 3 3 0 11 -7 18 -10 9 -11 8 -5 -6z"/>
<path d="M1042 2929 c-10 -15 -10 -19 0 -17 7 2 12 -3 10 -10 -1 -8 2 -11 8
-7 6 3 8 11 5 16 -11 16 7 10 22 -8 8 -10 11 -12 7 -4 -3 7 0 18 7 23 11 8 10
9 -3 4 -10 -3 -24 1 -31 8 -11 12 -15 11 -25 -5z"/>
<path d="M1005 2930 c3 -5 0 -19 -8 -31 -15 -20 -15 -20 -21 -2 -7 20 -36 28
-33 9 1 -6 -4 -10 -11 -8 -9 2 -11 -4 -7 -18 4 -13 2 -20 -7 -21 -7 0 -4 -4 7
-9 31 -13 36 -11 23 10 -17 26 2 49 22 25 7 -9 8 -15 2 -15 -7 0 -6 -9 1 -25
13 -28 29 -32 46 -11 9 10 7 17 -6 27 -14 12 -16 12 -9 0 6 -9 5 -12 -3 -10
-20 7 -18 23 4 27 11 2 25 9 30 14 7 7 3 9 -12 5 -21 -5 -21 -4 -6 19 14 22
14 24 -1 24 -10 0 -14 -4 -11 -10z"/>
<path d="M1130 2930 c0 -5 5 -10 11 -10 5 0 7 5 4 10 -3 6 -8 10 -11 10 -2 0
-4 -4 -4 -10z"/>
<path d="M853 2923 c-7 -2 -13 -11 -13 -18 0 -7 6 -15 13 -18 7 -3 12 4 12 19
0 13 0 24 0 23 0 0 -6 -3 -12 -6z"/>
<path d="M1128 2903 c6 -2 9 -10 6 -15 -4 -7 -2 -8 5 -4 13 9 5 26 -12 25 -9
0 -8 -2 1 -6z"/>
<path d="M1034 2868 c-5 -8 -2 -9 9 -5 10 3 17 2 17 -3 0 -6 11 -10 23 -10 14
0 24 6 24 14 0 11 -5 13 -19 5 -12 -6 -18 -6 -18 1 0 14 -27 13 -36 -2z"/>
<path d="M1145 2860 c-4 -6 -10 -8 -15 -5 -4 3 -10 -4 -13 -15 -3 -11 0 -20 6
-20 8 0 7 -3 -1 -9 -11 -7 -11 -9 1 -14 12 -4 15 0 12 16 -3 11 3 29 12 39 9
10 13 18 10 18 -3 0 -9 -5 -12 -10z"/>
<path d="M1041 2825 c-1 -23 -4 -26 -11 -15 -7 12 -12 12 -22 2 -6 -6 -8 -13
-2 -13 5 -1 19 -3 31 -4 12 -1 30 -5 40 -9 15 -5 14 -3 -4 11 -11 10 -23 27
-26 38 -3 14 -5 11 -6 -10z"/>
<path d="M1060 2831 c0 -6 4 -13 10 -16 6 -3 7 1 4 9 -7 18 -14 21 -14 7z"/>
<path d="M790 2821 c0 -6 5 -13 10 -16 6 -3 10 1 10 9 0 9 -4 16 -10 16 -5 0
-10 -4 -10 -9z"/>
<path d="M969 2770 c13 -11 31 -20 40 -19 9 0 11 3 4 5 -7 3 -9 13 -6 22 6 15
4 15 -9 4 -11 -9 -18 -10 -23 -2 -3 5 -12 10 -18 10 -7 -1 -1 -10 12 -20z"/>
<path d="M937 2746 c-3 -8 1 -17 9 -20 8 -3 14 -1 14 4 0 5 8 7 18 3 14 -5 13
-3 -3 10 -25 20 -31 21 -38 3z"/>
<path d="M850 2715 c0 -8 4 -15 10 -15 5 0 7 7 4 15 -4 8 -8 15 -10 15 -2 0
-4 -7 -4 -15z"/>
<path d="M805 2701 c3 -6 -3 -14 -12 -20 -14 -7 -15 -12 -6 -22 9 -9 15 -8 28
5 15 14 18 14 31 1 23 -23 25 -18 6 15 -9 16 -25 30 -35 30 -10 0 -16 -4 -12
-9z m25 -10 c0 -5 -7 -12 -16 -15 -14 -5 -15 -4 -4 9 14 17 20 19 20 6z"/>
<path d="M913 2656 c1 -32 3 -35 10 -18 6 12 5 27 -1 38 -8 15 -10 11 -9 -20z"/>
<path d="M623 2650 c-13 -5 -23 -11 -23 -14 0 -7 40 6 46 15 6 10 6 10 -23 -1z"/>
<path d="M946 2651 c-3 -5 0 -11 7 -14 8 -3 14 1 14 9 0 16 -13 19 -21 5z"/>
<path d="M871 2783 c-1 -17 16 -25 25 -12 4 7 3 9 -4 5 -5 -3 -13 0 -15 6 -4
9 -6 10 -6 1z"/>
<path d="M2755 2165 c-5 -2 -32 -6 -58 -10 -47 -6 -54 -15 -19 -23 9 -2 112
-8 227 -12 211 -8 277 -18 399 -60 64 -22 111 -26 101 -10 -10 16 -104 63
-155 78 -130 38 -166 43 -324 41 -89 -1 -165 -3 -171 -4z"/>
<path d="M2472 2113 c4 -21 33 -25 33 -3 0 8 -8 16 -18 18 -14 3 -18 -1 -15
-15z"/>
<path d="M1940 2105 c0 -8 5 -15 10 -15 6 0 10 7 10 15 0 8 -4 15 -10 15 -5 0
-10 -7 -10 -15z"/>
<path d="M1856 2103 c-11 -11 -6 -23 9 -23 8 0 15 4 15 9 0 13 -16 22 -24 14z"/>
<path d="M2350 2090 c0 -13 5 -20 13 -17 6 2 12 10 12 17 0 7 -6 15 -12 18 -8
2 -13 -5 -13 -18z"/>
<path d="M2445 2017 c-4 -10 -5 -21 -1 -24 10 -10 18 4 13 24 -4 17 -4 17 -12
0z"/>
<path d="M736 2445 c-4 -10 1 -15 16 -15 17 0 18 2 8 15 -7 8 -14 15 -15 15
-2 0 -5 -7 -9 -15z"/>
<path d="M525 2390 c-3 -5 1 -10 10 -10 9 0 13 5 10 10 -3 6 -8 10 -10 10 -2
0 -7 -4 -10 -10z"/>
<path d="M620 2359 c0 -5 5 -7 10 -4 6 3 10 8 10 11 0 2 -4 4 -10 4 -5 0 -10
-5 -10 -11z"/>
<path d="M3380 4500 c0 -5 5 -10 11 -10 5 0 7 5 4 10 -3 6 -8 10 -11 10 -2 0
-4 -4 -4 -10z"/>
<path d="M2822 4337 c-9 -10 -8 -19 3 -34 8 -12 12 -30 9 -40 -3 -10 4 -2 16
17 12 19 26 37 31 38 13 5 11 19 -3 19 -7 0 -20 4 -29 7 -9 4 -21 1 -27 -7z
m33 -28 c-10 -15 -25 -10 -19 6 4 8 10 12 15 9 5 -3 7 -10 4 -15z"/>
<path d="M2095 4250 c4 -6 11 -8 16 -5 14 9 11 15 -7 15 -8 0 -12 -5 -9 -10z"/>
<path d="M2855 4251 c-6 -11 13 -26 22 -17 4 3 0 6 -8 6 -11 0 -11 2 1 10 9 6
10 10 3 10 -6 0 -14 -4 -18 -9z"/>
<path d="M1473 4235 c0 -8 4 -12 9 -9 5 3 6 10 3 15 -9 13 -12 11 -12 -6z"/>
<path d="M2080 4236 c0 -2 8 -10 18 -17 15 -13 16 -12 3 4 -13 16 -21 21 -21
13z"/>
<path d="M2173 4223 c4 -3 -1 -12 -11 -20 -15 -13 -15 -13 4 -4 12 6 24 7 28
3 4 -3 4 1 0 11 -3 9 -11 17 -17 17 -6 0 -7 -3 -4 -7z"/>
<path d="M2091 4191 c-8 -5 -9 -11 -3 -15 5 -3 12 1 16 9 6 17 6 18 -13 6z"/>
<path d="M2760 4166 c0 -2 8 -10 18 -17 15 -13 16 -12 3 4 -13 16 -21 21 -21
13z"/>
<path d="M2906 4159 c4 -7 44 0 44 7 0 2 -11 3 -24 2 -14 -1 -23 -5 -20 -9z"/>
<path d="M2161 4138 c-7 -11 -9 -18 -4 -15 10 7 38 -13 46 -33 4 -12 6 -12 6
2 1 10 -9 22 -20 29 -16 8 -18 13 -9 19 7 4 8 10 3 13 -5 3 -15 -3 -22 -15z"/>
<path d="M2256 4145 c-9 -26 -7 -32 5 -12 6 10 9 21 6 23 -2 3 -7 -2 -11 -11z"/>
<path d="M2576 4151 c-3 -5 1 -11 9 -14 9 -4 12 -1 8 9 -6 16 -10 17 -17 5z"/>
<path d="M2995 4150 c-4 -6 -11 -7 -17 -4 -7 4 -8 2 -4 -5 4 -6 12 -9 17 -6 5
4 9 -2 9 -11 0 -22 9 -13 15 15 4 22 -9 29 -20 11z"/>
<path d="M2200 4141 c0 -6 4 -13 10 -16 6 -3 7 1 4 9 -7 18 -14 21 -14 7z"/>
<path d="M3027 4137 c-3 -8 -2 -20 3 -26 5 -9 8 -4 8 13 0 29 -3 32 -11 13z"/>
<path d="M1968 4113 c7 -3 16 -2 19 1 4 3 -2 6 -13 5 -11 0 -14 -3 -6 -6z"/>
<path d="M2450 4111 c0 -6 4 -13 10 -16 6 -3 7 1 4 9 -7 18 -14 21 -14 7z"/>
<path d="M2035 4091 c-3 -5 -2 -12 3 -15 5 -3 9 1 9 9 0 17 -3 19 -12 6z"/>
<path d="M2175 4091 c-3 -5 -1 -12 5 -16 5 -3 10 1 10 9 0 18 -6 21 -15 7z"/>
<path d="M2265 4089 c-4 -6 -4 -13 -1 -16 3 -4 6 -1 6 6 0 7 5 9 12 5 7 -4 8
-3 4 4 -9 15 -13 15 -21 1z"/>
<path d="M2593 4088 c1 -8 -6 -12 -18 -10 -11 2 -18 2 -15 0 3 -2 13 -10 23
-18 16 -11 18 -11 15 1 -2 8 3 13 11 11 12 -3 12 0 1 12 -15 19 -21 20 -17 4z"/>
<path d="M2973 4085 c-10 -11 -9 -13 6 -12 11 1 17 7 14 14 -6 16 -5 16 -20
-2z"/>
<path d="M2490 4086 c0 -10 28 -13 41 -5 10 6 7 9 -13 9 -16 0 -28 -2 -28 -4z"/>
<path d="M2636 4079 c3 -5 12 -9 21 -9 19 0 9 13 -12 16 -8 1 -13 -2 -9 -7z"/>
<path d="M2006 4054 c-3 -8 -2 -13 3 -9 5 3 11 0 13 -7 3 -9 6 -9 12 0 4 7 2
12 -4 12 -6 0 -8 5 -5 10 3 6 2 10 -3 10 -6 0 -13 -7 -16 -16z"/>
<path d="M2283 4055 c0 -8 4 -12 9 -9 5 3 6 10 3 15 -9 13 -12 11 -12 -6z"/>
<path d="M2454 4053 c2 -10 6 -17 10 -16 15 3 16 11 2 22 -12 10 -14 9 -12 -6z"/>
<path d="M2173 4034 c0 -17 2 -22 7 -13 5 6 6 18 3 26 -8 19 -10 16 -10 -13z"/>
<path d="M3029 4049 c14 -5 28 -6 33 -1 4 4 -7 9 -25 9 -30 2 -31 2 -8 -8z"/>
<path d="M2580 4032 c0 -4 9 -21 19 -39 15 -24 17 -32 7 -36 -8 -3 -20 0 -27
6 -11 10 -11 9 0 -5 10 -14 17 -15 32 -7 18 9 18 12 4 32 -18 26 -20 51 -2 41
6 -4 8 -3 4 1 -9 11 -37 16 -37 7z"/>
<path d="M2945 4029 c-4 -6 -5 -12 -2 -15 2 -3 7 2 10 11 7 17 1 20 -8 4z"/>
<path d="M1980 4015 c-10 -12 -9 -16 6 -21 11 -4 23 -9 28 -12 5 -3 6 0 2 6
-3 6 2 15 11 21 10 6 13 11 6 11 -6 0 -15 -4 -18 -10 -10 -16 -28 -12 -21 5 7
19 2 19 -14 0z"/>
<path d="M2050 4021 c0 -6 4 -12 8 -15 5 -3 9 1 9 9 0 8 -4 15 -9 15 -4 0 -8
-4 -8 -9z"/>
<path d="M2428 4023 c7 -3 16 -2 19 1 4 3 -2 6 -13 5 -11 0 -14 -3 -6 -6z"/>
<path d="M2471 4016 c-8 -10 -9 -16 -1 -21 5 -3 10 1 10 10 0 9 5 13 10 10 6
-4 8 -11 5 -16 -4 -5 -1 -9 4 -9 15 0 14 15 -3 29 -10 8 -16 8 -25 -3z"/>
<path d="M3027 4023 c-3 -5 6 -9 20 -10 19 -1 22 1 12 8 -17 11 -26 11 -32 2z"/>
<path d="M2665 4010 c-4 -6 -11 -7 -17 -4 -6 4 -8 2 -4 -4 3 -5 0 -13 -6 -15
-8 -3 -8 -6 -2 -6 6 -1 19 8 29 19 10 11 15 20 12 20 -3 0 -9 -5 -12 -10z"/>
<path d="M2886 3993 c-6 -14 -5 -15 5 -6 7 7 10 15 7 18 -3 3 -9 -2 -12 -12z"/>
<path d="M2267 3985 c3 -8 9 -12 14 -9 12 7 11 11 -5 17 -10 4 -13 1 -9 -8z"/>
<path d="M2355 3990 c-3 -5 1 -10 10 -10 9 0 13 5 10 10 -3 6 -8 10 -10 10 -2
0 -7 -4 -10 -10z"/>
<path d="M2985 3990 c-3 -5 1 -20 9 -32 9 -12 16 -17 16 -11 0 7 -5 15 -11 18
-6 4 -8 13 -5 21 6 16 0 19 -9 4z"/>
<path d="M2197 3976 c4 -13 3 -17 -5 -12 -7 4 -12 2 -12 -3 0 -6 6 -11 13 -12
6 -1 21 -2 32 -3 12 0 19 -8 19 -18 -1 -10 4 -18 12 -18 8 0 14 7 14 16 0 9 5
12 12 8 7 -4 8 -3 4 5 -4 6 -12 9 -17 6 -5 -4 -9 -1 -9 4 0 6 -3 10 -7 9 -5
-2 -9 2 -9 7 -1 6 2 9 8 7 5 -1 7 2 3 7 -7 12 -35 3 -35 -12 0 -6 -7 -2 -15 9
-15 18 -15 18 -8 0z"/>
<path d="M1980 3961 c13 -10 28 -17 33 -14 9 6 7 10 -8 13 -5 1 -19 6 -30 12
-14 6 -13 3 5 -11z"/>
<path d="M2390 3971 c0 -7 -4 -9 -10 -6 -5 3 -10 1 -10 -4 0 -6 4 -11 9 -11
13 0 25 20 17 27 -3 4 -6 1 -6 -6z"/>
<path d="M2418 3969 c-4 -11 2 -16 24 -17 19 -2 27 1 23 8 -4 6 -13 9 -20 6
-8 -3 -15 0 -18 7 -2 7 -5 5 -9 -4z"/>
<path d="M2150 3951 c0 -5 7 -14 15 -21 10 -9 15 -9 15 -1 0 6 -5 11 -11 11
-5 0 -7 5 -4 10 3 6 1 10 -4 10 -6 0 -11 -4 -11 -9z"/>
<path d="M2720 3939 c0 -5 -6 -7 -12 -3 -8 5 -8 1 2 -12 8 -10 15 -20 16 -22
1 -2 2 9 2 23 0 14 -2 25 -4 25 -2 0 -4 -5 -4 -11z"/>
<path d="M2412 3926 c7 -8 15 -12 17 -11 5 6 -10 25 -20 25 -5 0 -4 -6 3 -14z"/>
<path d="M2475 3930 c3 -6 13 -10 21 -10 8 0 13 -4 9 -9 -3 -5 -1 -12 5 -16 5
-3 10 2 10 11 0 17 1 16 13 -1 10 -13 16 -15 21 -6 10 16 -14 45 -27 32 -6 -6
-19 -6 -34 0 -16 6 -22 5 -18 -1z"/>
<path d="M2570 3930 c0 -6 7 -10 15 -10 8 0 15 2 15 4 0 2 -7 6 -15 10 -8 3
-15 1 -15 -4z"/>
<path d="M2672 3927 c-8 -10 -6 -13 7 -13 11 0 17 6 14 13 -3 7 -6 13 -8 13
-1 0 -7 -6 -13 -13z"/>
<path d="M1896 3914 c-6 -15 -4 -15 11 -3 10 7 20 15 22 16 2 2 -3 3 -11 3 -9
0 -19 -7 -22 -16z"/>
<path d="M2135 3920 c3 -5 8 -10 11 -10 2 0 4 5 4 10 0 6 -5 10 -11 10 -5 0
-7 -4 -4 -10z"/>
<path d="M2201 3916 c-10 -12 -8 -13 8 -9 12 3 18 9 15 14 -7 12 -10 11 -23
-5z"/>
<path d="M2337 3924 c-3 -3 -3 -18 -1 -32 3 -16 1 -22 -4 -15 -9 14 -26 5 -30
-16 -3 -12 0 -12 12 -2 13 11 17 9 26 -14 6 -15 8 -36 4 -47 -4 -14 0 -21 16
-25 14 -4 19 -11 15 -21 -4 -12 -2 -12 8 -4 8 7 16 10 18 7 3 -2 5 4 5 14 0
14 -7 17 -28 15 -15 -2 -28 1 -28 7 0 6 4 8 9 5 13 -8 45 32 47 59 1 19 -3 22
-20 16 -22 -9 -34 -31 -17 -31 6 0 11 -7 11 -15 0 -8 -4 -15 -10 -15 -5 0 -9
3 -8 8 1 4 -3 17 -10 29 -10 18 -9 24 3 37 17 16 20 30 5 21 -6 -3 -7 1 -4 9
6 16 -7 22 -19 10z m60 -70 c-3 -3 -12 -4 -19 -1 -8 3 -5 6 6 6 11 1 17 -2 13
-5z"/>
<path d="M2370 3921 c0 -5 5 -13 10 -16 6 -3 10 -2 10 4 0 5 -4 13 -10 16 -5
3 -10 2 -10 -4z"/>
<path d="M2448 3913 c7 -3 16 -2 19 1 4 3 -2 6 -13 5 -11 0 -14 -3 -6 -6z"/>
<path d="M2870 3909 c0 -5 5 -7 10 -4 6 3 10 8 10 11 0 2 -4 4 -10 4 -5 0 -10
-5 -10 -11z"/>
<path d="M2245 3879 c-16 -12 -22 -19 -13 -16 9 3 19 1 22 -6 2 -7 8 -2 11 10
4 13 11 20 16 17 5 -3 9 0 9 5 0 16 -11 13 -45 -10z"/>
<path d="M2580 3890 c0 -5 5 -10 11 -10 5 0 7 5 4 10 -3 6 -8 10 -11 10 -2 0
-4 -4 -4 -10z"/>
<path d="M2434 3858 c15 -26 15 -28 -5 -39 -17 -9 -19 -13 -8 -20 8 -5 10 -9
4 -9 -5 0 -3 -5 5 -10 8 -5 22 -9 30 -9 10 0 8 3 -5 9 -11 5 -14 9 -6 9 11 1
11 4 1 17 -11 13 -10 16 8 21 21 5 26 33 9 49 -3 4 -5 -3 -2 -15 5 -27 -8 -27
-30 2 -16 21 -16 21 -1 -5z"/>
<path d="M2653 3855 c0 -8 4 -12 9 -9 5 3 6 10 3 15 -9 13 -12 11 -12 -6z"/>
<path d="M1854 3801 c0 -10 6 -23 13 -30 10 -9 13 -8 13 7 0 11 -6 24 -13 30
-10 8 -13 6 -13 -7z"/>
<path d="M2625 3800 c3 -5 8 -10 11 -10 2 0 4 5 4 10 0 6 -5 10 -11 10 -5 0
-7 -4 -4 -10z"/>
<path d="M1517 3789 c7 -7 15 -10 18 -7 3 3 -2 9 -12 12 -14 6 -15 5 -6 -5z"/>
<path d="M2540 3775 c0 -8 5 -15 10 -15 6 0 10 7 10 15 0 8 -4 15 -10 15 -5 0
-10 -7 -10 -15z"/>
<path d="M2875 3780 c6 -10 3 -12 -13 -8 -12 4 -23 0 -26 -7 -3 -9 2 -12 16
-10 29 6 43 21 27 30 -8 6 -10 4 -4 -5z"/>
<path d="M3416 3761 c-3 -5 1 -11 9 -15 8 -3 15 -1 15 4 0 13 -18 22 -24 11z"/>
<path d="M1700 3756 c0 -2 7 -6 15 -10 8 -3 15 -1 15 4 0 6 -7 10 -15 10 -8 0
-15 -2 -15 -4z"/>
<path d="M2445 3750 c3 -5 1 -11 -5 -15 -13 -8 -13 -25 0 -25 6 0 10 5 10 11
0 7 7 17 16 23 13 10 13 12 -6 13 -11 1 -18 -2 -15 -7z"/>
<path d="M3535 3750 c-3 -6 1 -7 9 -4 18 7 21 14 7 14 -6 0 -13 -4 -16 -10z"/>
<path d="M1539 3733 c-13 -16 -12 -17 4 -4 9 7 17 15 17 17 0 8 -8 3 -21 -13z"/>
<path d="M1210 3725 c-8 -9 -8 -15 -2 -15 12 0 26 19 19 26 -2 2 -10 -2 -17
-11z"/>
<path d="M1230 3695 c0 -8 2 -15 4 -15 2 0 6 7 10 15 3 8 1 15 -4 15 -6 0 -10
-7 -10 -15z"/>
<path d="M1596 3693 c-6 -14 -5 -15 5 -6 7 7 10 15 7 18 -3 3 -9 -2 -12 -12z"/>
<path d="M1468 3693 c6 -2 9 -10 6 -15 -4 -7 -2 -8 5 -4 13 9 5 26 -12 25 -9
0 -8 -2 1 -6z"/>
<path d="M2912 3680 c0 -14 2 -19 5 -12 2 6 2 18 0 25 -3 6 -5 1 -5 -13z"/>
<path d="M3470 3689 c0 -5 5 -7 10 -4 6 3 10 8 10 11 0 2 -4 4 -10 4 -5 0 -10
-5 -10 -11z"/>
<path d="M1354 3679 c-3 -6 -2 -15 3 -20 5 -5 9 -1 9 11 0 23 -2 24 -12 9z"/>
<path d="M1558 3666 c-20 -15 -25 -31 -5 -19 6 4 23 6 36 4 14 -2 21 1 17 8
-4 5 -14 7 -23 4 -11 -4 -14 -3 -9 5 9 15 5 15 -16 -2z"/>
<path d="M3331 3653 c0 -11 3 -13 6 -5 2 6 10 9 15 6 7 -4 8 -2 4 4 -11 18
-26 14 -25 -5z"/>
<path d="M1555 3631 c-6 -11 13 -26 22 -17 4 3 1 6 -6 6 -7 0 -9 5 -6 10 3 6
4 10 1 10 -3 0 -7 -4 -11 -9z"/>
<path d="M1320 3613 c0 -10 4 -14 8 -8 4 6 11 13 16 18 5 4 2 7 -7 7 -10 0
-17 -8 -17 -17z"/>
<path d="M1510 3617 c0 -12 50 -36 55 -27 4 6 3 9 -2 8 -4 -1 -18 3 -30 10
-13 7 -23 11 -23 9z"/>
<path d="M1406 3594 c-5 -14 -4 -15 9 -4 17 14 19 20 6 20 -5 0 -12 -7 -15
-16z"/>
<path d="M3323 3598 c-3 -6 -1 -8 5 -4 6 3 12 0 14 -8 2 -11 5 -12 15 -1 9 10
8 14 -8 18 -10 3 -22 0 -26 -5z"/>
<path d="M1576 3582 c-3 -5 1 -9 9 -9 8 0 15 4 15 9 0 4 -4 8 -9 8 -6 0 -12
-4 -15 -8z"/>
<path d="M1530 3530 c8 -5 20 -10 25 -10 6 0 3 5 -5 10 -8 5 -19 10 -25 10 -5
0 -3 -5 5 -10z"/>
<path d="M1626 3512 c-3 -5 1 -9 9 -9 8 0 12 4 9 9 -3 4 -7 8 -9 8 -2 0 -6 -4
-9 -8z"/>
<path d="M1547 3499 c7 -7 15 -10 18 -7 3 3 -2 9 -12 12 -14 6 -15 5 -6 -5z"/>
<path d="M1636 3477 c3 -10 9 -15 12 -12 3 3 0 11 -7 18 -10 9 -11 8 -5 -6z"/>
</g>
</svg>
